<?xml version="1.0" encoding="UTF-8" standalone="yes"?> <svg xmlns="http://www.w3.org/2000/svg" xmlns:xlink="http://www.w3.org/1999/xlink" width="786" height="756" viewBox="0 0 786 756" style="fill:none;stroke:none;fill-rule:evenodd;clip-rule:evenodd;stroke-linecap:round;stroke-linejoin:round;stroke-miterlimit:1.5;" version="1.1"><style id="fontImports">@import url("https://fonts.googleapis.com/css2?family=Roboto:wght@400;700&amp;display=block");</style><g id="items" style="isolation: isolate"><g id="blend" style="mix-blend-mode:normal"><g id="g-root-3.cu_sy_94n92fpkg2rn-fill" data-item-order="999813379" data-item-id="3.cu_sy_94n92fpkg2rn" data-item-class="Part Indexed Fill Stroke ColorStrokeBlack" data-item-index="3" data-renderer-id="0" transform="translate(164.00021362304688, 122)"><g id="3.cu_sy_94n92fpkg2rn-fill" stroke="none" fill="url(#gradient-fba659-170788768)"><g><path d="M 10 226C 10 265.425 20.5623 302.383 39.0116 334.198L 111.696 292.064C 100.4421 272.634 94 250.069 94 226C 94 208.376 97.4539 191.559 103.7218 176.188L 135.313 194.427C 139.334 182.876 145.501 172.328 153.335 163.263L 121.747 145.025C 145.898 113.976 183.616 94.0001 226 94L 225.999 10C 106.7062 10.0003 10 106.7067 10 226Z"></path></g></g></g><g id="g-root-3.cu_sy_94n92fpkg2rn-fill" data-item-order="999813379" data-item-id="3.cu_sy_94n92fpkg2rn" data-item-class="Part Indexed Fill Stroke ColorStrokeBlack" data-item-index="3" data-renderer-id="0" transform="translate(164.00021362304688, 122)"><g id="3.cu_sy_94n92fpkg2rn-fill" stroke="none" fill="url(#gradient-fba659-170788768)"><g><path d="M 10 226C 10 265.425 20.5623 302.383 39.0116 334.198L 111.696 292.064C 100.4421 272.634 94 250.069 94 226C 94 208.376 97.4539 191.559 103.7218 176.188L 135.313 194.427C 139.334 182.876 145.501 172.328 153.335 163.263L 121.747 145.025C 145.898 113.976 183.616 94.0001 226 94L 225.999 10C 106.7062 10.0003 10 106.7067 10 226Z"></path></g></g></g><g id="g-root-2.cu_sy_94n92fpkg2rm-fill" data-item-order="999813381" data-item-id="2.cu_sy_94n92fpkg2rm" data-item-class="Part Indexed Fill Stroke ColorStrokeBlack" data-item-index="2" data-renderer-id="0" transform="translate(193.01101684570312, 404.0390625)"><g id="2.cu_sy_94n92fpkg2rm-fill" stroke="none" fill="url(#gradient-f783c9-143094716)"><g><path d="M 196.989 159.962C 276.929 159.962 346.726 116.536 384.077 51.9873L 311.307 10C 291.332 44.5042 256.184 69.1276 214.989 74.7445L 214.989 38.2774C 209.158 39.3834 203.141 39.9621 196.989 39.9621C 190.837 39.9621 184.819 39.3834 178.989 38.2773L 178.989 74.7445C 137.803 69.1287 102.6622 44.5157 82.6846 10.0244L 10 52.1584C 47.3754 116.612 117.12 159.962 196.989 159.962Z"></path></g></g></g><g id="g-root-2.cu_sy_94n92fpkg2rm-fill" data-item-order="999813381" data-item-id="2.cu_sy_94n92fpkg2rm" data-item-class="Part Indexed Fill Stroke ColorStrokeBlack" data-item-index="2" data-renderer-id="0" transform="translate(193.01101684570312, 404.0390625)"><g id="2.cu_sy_94n92fpkg2rm-fill" stroke="none" fill="url(#gradient-f783c9-143094716)"><g><path d="M 196.989 159.962C 276.929 159.962 346.726 116.536 384.077 51.9873L 311.307 10C 291.332 44.5042 256.184 69.1276 214.989 74.7445L 214.989 38.2774C 209.158 39.3834 203.141 39.9621 196.989 39.9621C 190.837 39.9621 184.819 39.3834 178.989 38.2773L 178.989 74.7445C 137.803 69.1287 102.6622 44.5157 82.6846 10.0244L 10 52.1584C 47.3754 116.612 117.12 159.962 196.989 159.962Z"></path></g></g></g><g id="g-root-1.cu_sy_dkgr6vpkg1zd-fill" data-item-order="999813383" data-item-id="1.cu_sy_dkgr6vpkg1zd" data-item-class="Part Indexed Indexed_1 Fill Stroke ColorStrokeBlack" data-item-index="1" data-renderer-id="0" transform="translate(379.99957275390625, 122.0009765625)"><g id="1.cu_sy_dkgr6vpkg1zd-fill" stroke="none" fill="url(#gradient-fd8480-377457365)"><g><path d="M 226.001 226C 226.001 265.354 215.476 302.25 197.088 334.026L 124.319 292.039C 135.564 272.615 142.001 250.059 142.001 226C 142.001 208.376 138.547 191.558 132.278 176.187L 100.6873 194.426C 96.6659 182.874 90.4996 172.327 82.6655 163.262L 114.253 145.025C 90.1011 113.975 52.3832 94 10 94L 10.0007 10C 129.294 10 226.001 106.7065 226.001 226Z"></path></g></g></g><g id="g-root-1.cu_sy_dkgr6vpkg1zd-fill" data-item-order="999813383" data-item-id="1.cu_sy_dkgr6vpkg1zd" data-item-class="Part Indexed Indexed_1 Fill Stroke ColorStrokeBlack" data-item-index="1" data-renderer-id="0" transform="translate(379.99957275390625, 122.0009765625)"><g id="1.cu_sy_dkgr6vpkg1zd-fill" stroke="none" fill="url(#gradient-fd8480-377457365)"><g><path d="M 226.001 226C 226.001 265.354 215.476 302.25 197.088 334.026L 124.319 292.039C 135.564 272.615 142.001 250.059 142.001 226C 142.001 208.376 138.547 191.558 132.278 176.187L 100.6873 194.426C 96.6659 182.874 90.4996 172.327 82.6655 163.262L 114.253 145.025C 90.1011 113.975 52.3832 94 10 94L 10.0007 10C 129.294 10 226.001 106.7065 226.001 226Z"></path></g></g></g><g id="g-root-0.cu_sy_dkgr6vpkg1zc-fill" data-item-order="999813385" data-item-id="0.cu_sy_dkgr6vpkg1zc" data-item-class="Part Indexed_0 Fill Stroke ColorFillBlack ColorStrokeBlack" data-item-index="0" data-renderer-id="0" transform="translate(284, 242)"><g id="0.cu_sy_dkgr6vpkg1zc-fill" stroke="none" fill="url(#gradient-999999-232777082)"><g><path d="M 202 106C 202 159.019 159.019 202 106 202C 52.9807 202 10 159.019 10 106C 10 52.9807 52.9807 10 106 10C 159.019 10 202 52.9807 202 106Z"></path></g></g></g><g id="g-root-0.cu_sy_dkgr6vpkg1zc-fill" data-item-order="999813385" data-item-id="0.cu_sy_dkgr6vpkg1zc" data-item-class="Part Indexed_0 Fill Stroke ColorFillBlack ColorStrokeBlack" data-item-index="0" data-renderer-id="0" transform="translate(284, 242)"><defs><linearGradient id="gradient-fba659-170788768" x2="0" y2="1"><stop offset="0" stop-color="#fcb778"></stop><stop offset="1" stop-color="#F99539"></stop></linearGradient><linearGradient id="gradient-f783c9-143094716" x2="0" y2="1"><stop offset="0" stop-color="#f89cd3"></stop><stop offset="1" stop-color="#F669BE"></stop></linearGradient><linearGradient id="gradient-fd8480-377457365" x2="0" y2="1"><stop offset="0" stop-color="#fd9e9a"></stop><stop offset="1" stop-color="#FD6A65"></stop></linearGradient><linearGradient id="gradient-999999-232777082" x2="0" y2="1"><stop offset="0" stop-color="#cccccc"></stop><stop offset="1" stop-color="#666666"></stop></linearGradient></defs><g id="0.cu_sy_dkgr6vpkg1zc-fill" stroke="none" fill="url(#gradient-999999-232777082)"><g><path d="M 202 106C 202 159.019 159.019 202 106 202C 52.9807 202 10 159.019 10 106C 10 52.9807 52.9807 10 106 10C 159.019 10 202 52.9807 202 106Z"></path></g></g></g><g id="g-root-tx_epilepsy_qn6mcnpkhh56-fill" data-item-order="1000000000" data-item-id="tx_epilepsy_qn6mcnpkhh56" data-item-class="Label Stroke Indexed Indexed_1" data-item-index="1" data-renderer-id="0" transform="translate(638, 110)"><g id="tx_epilepsy_qn6mcnpkhh56-fill" stroke="none" fill="#e15e5a"><g><text style="font: bold 20px Roboto, sans-serif; white-space: pre;" font-weight="bold" font-size="20" font-family="Roboto, sans-serif"><tspan x="14.25" y="33.5">Epilepsy</tspan></text></g></g></g><g id="g-root-tx_epilepsy_qn6mcnpkhh56-fill" data-item-order="1000000000" data-item-id="tx_epilepsy_qn6mcnpkhh56" data-item-class="Label Stroke Indexed Indexed_1" data-item-index="1" data-renderer-id="0" transform="translate(638, 110)"><g id="tx_epilepsy_qn6mcnpkhh56-fill" stroke="none" fill="#e15e5a"><g><text style="font: bold 20px Roboto, sans-serif; white-space: pre;" font-weight="bold" font-size="20" font-family="Roboto, sans-serif"><tspan x="14.25" y="33.5">Epilepsy</tspan></text></g></g></g><g id="g-root-tx_autistic_1uux9rbpkg0zp-fill" data-item-order="1000000000" data-item-id="tx_autistic_1uux9rbpkg0zp" data-item-class="Label Stroke Indexed ColorStrokeBlack" data-item-index="3" data-renderer-id="0" transform="translate(2, 146)"><g id="tx_autistic_1uux9rbpkg0zp-fill" stroke="none" fill="#484848"><g><text style="font: 20px Roboto, sans-serif; white-space: pre;" font-weight="20px" font-size="Roboto," font-family="sans-serif"><tspan x="13.95" y="33.5">Autistic children </tspan><tspan x="15.56" y="57.5">have a 40 times </tspan><tspan x="27.63" y="81.5">higher risk of </tspan><tspan x="28.05" y="105.5">injury-related </tspan><tspan x="57.73" y="129.5">death.</tspan></text></g></g></g><g id="g-root-tx_manyauti_1lza9ifpkg1se-fill" data-item-order="1000000000" data-item-id="tx_manyauti_1lza9ifpkg1se" data-item-class="Label Stroke Indexed ColorStrokeBlack" data-item-index="2" data-renderer-id="0" transform="translate(308, 614)"><g id="tx_manyauti_1lza9ifpkg1se-fill" stroke="none" fill="#484848"><g><text style="font: 20px Roboto, sans-serif; white-space: pre;" font-weight="20px" font-size="Roboto," font-family="sans-serif"><tspan x="19.9" y="33.5">Many autistic </tspan><tspan x="22.26" y="57.5">children face </tspan><tspan x="15.74" y="81.5">anxiety, ADHD, </tspan><tspan x="36.66" y="105.5">and sleep </tspan><tspan x="35.2" y="129.5">disorders.</tspan></text></g></g></g><g id="g-root-tx_upto30of_1hjgrdzpkg2kn-fill" data-item-order="1000000000" data-item-id="tx_upto30of_1hjgrdzpkg2kn" data-item-class="Label Stroke Indexed Indexed_1 ColorStrokeBlack" data-item-index="1" data-renderer-id="0" transform="translate(596, 146)"><g id="tx_upto30of_1hjgrdzpkg2kn-fill" stroke="none" fill="#484848"><g><text style="font: 20px Roboto, sans-serif; white-space: pre;" font-weight="20px" font-size="Roboto," font-family="sans-serif"><tspan x="36.47" y="33.5">Up to 30% of </tspan><tspan x="22.05" y="57.5">autistic children </tspan><tspan x="44.27" y="81.5">experience </tspan><tspan x="11.91" y="105.5">seizures, requiring </tspan><tspan x="57.36" y="129.5">medical </tspan><tspan x="31.04" y="153.5">management.</tspan></text></g></g></g><g id="g-root-tx_upto30of_1hjgrdzpkg2kn-fill" data-item-order="1000000000" data-item-id="tx_upto30of_1hjgrdzpkg2kn" data-item-class="Label Stroke Indexed Indexed_1 ColorStrokeBlack" data-item-index="1" data-renderer-id="0" transform="translate(596, 146)"><g id="tx_upto30of_1hjgrdzpkg2kn-fill" stroke="none" fill="#484848"><g><text style="font: 20px Roboto, sans-serif; white-space: pre;" font-weight="20px" font-size="Roboto," font-family="sans-serif"><tspan x="36.47" y="33.5">Up to 30% of </tspan><tspan x="22.05" y="57.5">autistic children </tspan><tspan x="44.27" y="81.5">experience </tspan><tspan x="11.91" y="105.5">seizures, requiring </tspan><tspan x="57.36" y="129.5">medical </tspan><tspan x="31.04" y="153.5">management.</tspan></text></g></g></g><g id="g-root-clif_940rzbpklo96-fill" data-item-order="1000000000" data-item-id="clif_940rzbpklo96" data-item-class="Icon Stroke Indexed InsideFill InsideColorFill ColorStrokeBlack" data-item-index="3" data-renderer-id="0" transform="translate(206, 230)"></g><g id="g-root-clif_940rzbpklo96-fill" data-item-order="1000000000" data-item-id="clif_940rzbpklo96" data-item-class="Icon Stroke Indexed InsideFill InsideColorFill ColorStrokeBlack" data-item-index="3" data-renderer-id="0" transform="translate(206, 230)"></g><g id="g-root-tx_injuryri_zitmljpkhgch-fill" data-item-order="1000000000" data-item-id="tx_injuryri_zitmljpkhgch" data-item-class="Label Stroke Indexed" data-item-index="3" data-renderer-id="0" transform="translate(26, 110)"><g id="tx_injuryri_zitmljpkhgch-fill" stroke="none" fill="#dd8433"><g><text style="font: bold 20px Roboto, sans-serif; white-space: pre;" font-weight="bold" font-size="20" font-family="Roboto, sans-serif"><tspan x="16.53" y="33.5">Injury Risk</tspan></text></g></g></g><g id="g-root-chip_vahtifpklp1c-fill" data-item-order="1000000000" data-item-id="chip_vahtifpklp1c" data-item-class="Icon Stroke Indexed Indexed_1 InsideFill InsideColorFill ColorStrokeBlack" data-item-index="1" data-renderer-id="0" transform="translate(506, 230)"></g><g id="g-root-chip_vahtifpklp1c-fill" data-item-order="1000000000" data-item-id="chip_vahtifpklp1c" data-item-class="Icon Stroke Indexed Indexed_1 InsideFill InsideColorFill ColorStrokeBlack" data-item-index="1" data-renderer-id="0" transform="translate(506, 230)"></g><g id="g-root-plus_hzns87pklngh-fill" data-item-order="1000000000" data-item-id="plus_hzns87pklngh" data-item-class="Icon Stroke InsideFill InsideColorFill InsideBlackFill ColorStrokeBlack" data-item-index="none" data-renderer-id="0" transform="translate(332, 290)"></g><g id="g-root-plus_hzns87pklngh-fill" data-item-order="1000000000" data-item-id="plus_hzns87pklngh" data-item-class="Icon Stroke InsideFill InsideColorFill InsideBlackFill ColorStrokeBlack" data-item-index="none" data-renderer-id="0" transform="translate(332, 290)"></g><g id="g-root-tx_injuryri_zitmljpkhgch-fill" data-item-order="1000000000" data-item-id="tx_injuryri_zitmljpkhgch" data-item-class="Label Stroke Indexed" data-item-index="3" data-renderer-id="0" transform="translate(26, 110)"><g id="tx_injuryri_zitmljpkhgch-fill" stroke="none" fill="#dd8433"><g><text style="font: bold 20px Roboto, sans-serif; white-space: pre;" font-weight="bold" font-size="20" font-family="Roboto, sans-serif"><tspan x="16.53" y="33.5">Injury Risk</tspan></text></g></g></g><g id="g-root-tx_challeng_94n92fpkg2ro-fill" data-item-order="1000000000" data-item-id="tx_challeng_94n92fpkg2ro" data-item-class="Label Stroke Title ColorFillBlack ColorStrokeBlack" data-item-index="none" data-renderer-id="0" transform="translate(236, 2)"><g id="tx_challeng_94n92fpkg2ro-fill" stroke="none" fill="#484848"><g><text style="font: bold 20px Roboto, sans-serif; white-space: pre;" font-weight="bold" font-size="20" font-family="Roboto, sans-serif"><tspan x="13.48" y="33.5">Challenges of Profound Autism</tspan></text></g></g></g><g id="g-root-trou_4o79uvpklp1f-fill" data-item-order="1000000000" data-item-id="trou_4o79uvpklp1f" data-item-class="Icon Stroke Indexed InsideFill InsideColorFill ColorStrokeBlack" data-item-index="2" data-renderer-id="0" transform="translate(356, 488)"></g><g id="g-root-trou_4o79uvpklp1f-fill" data-item-order="1000000000" data-item-id="trou_4o79uvpklp1f" data-item-class="Icon Stroke Indexed InsideFill InsideColorFill ColorStrokeBlack" data-item-index="2" data-renderer-id="0" transform="translate(356, 488)"></g><g id="g-root-tx_mentalhe_13yn4pzpkhfk8-fill" data-item-order="1000000000" data-item-id="tx_mentalhe_13yn4pzpkhfk8" data-item-class="Label Stroke Indexed" data-item-index="2" data-renderer-id="0" transform="translate(308, 566)"><g id="tx_mentalhe_13yn4pzpkhfk8-fill" stroke="none" fill="#da5da8"><g><text style="font: bold 20px Roboto, sans-serif; white-space: pre;" font-weight="bold" font-size="20" font-family="Roboto, sans-serif"><tspan x="16.4" y="33.5">Mental Health </tspan><tspan x="31" y="57.5">Conditions</tspan></text></g></g></g><g id="g-root-tx_mentalhe_13yn4pzpkhfk8-fill" data-item-order="1000000000" data-item-id="tx_mentalhe_13yn4pzpkhfk8" data-item-class="Label Stroke Indexed" data-item-index="2" data-renderer-id="0" transform="translate(308, 566)"><g id="tx_mentalhe_13yn4pzpkhfk8-fill" stroke="none" fill="#da5da8"><g><text style="font: bold 20px Roboto, sans-serif; white-space: pre;" font-weight="bold" font-size="20" font-family="Roboto, sans-serif"><tspan x="16.4" y="33.5">Mental Health </tspan><tspan x="31" y="57.5">Conditions</tspan></text></g></g></g><g id="g-root-tx_manyauti_1lza9ifpkg1se-fill" data-item-order="1000000000" data-item-id="tx_manyauti_1lza9ifpkg1se" data-item-class="Label Stroke Indexed ColorStrokeBlack" data-item-index="2" data-renderer-id="0" transform="translate(308, 614)"><g id="tx_manyauti_1lza9ifpkg1se-fill" stroke="none" fill="#484848"><g><text style="font: 20px Roboto, sans-serif; white-space: pre;" font-weight="20px" font-size="Roboto," font-family="sans-serif"><tspan x="19.9" y="33.5">Many autistic </tspan><tspan x="22.26" y="57.5">children face </tspan><tspan x="15.74" y="81.5">anxiety, ADHD, </tspan><tspan x="36.66" y="105.5">and sleep </tspan><tspan x="35.2" y="129.5">disorders.</tspan></text></g></g></g><g id="g-root-tx_challeng_94n92fpkg2ro-fill" data-item-order="1000000000" data-item-id="tx_challeng_94n92fpkg2ro" data-item-class="Label Stroke Title ColorFillBlack ColorStrokeBlack" data-item-index="none" data-renderer-id="0" transform="translate(236, 2)"><g id="tx_challeng_94n92fpkg2ro-fill" stroke="none" fill="#484848"><g><text style="font: bold 20px Roboto, sans-serif; white-space: pre;" font-weight="bold" font-size="20" font-family="Roboto, sans-serif"><tspan x="13.48" y="33.5">Challenges of Profound Autism</tspan></text></g></g></g><g id="g-root-tx_autistic_1uux9rbpkg0zp-fill" data-item-order="1000000000" data-item-id="tx_autistic_1uux9rbpkg0zp" data-item-class="Label Stroke Indexed ColorStrokeBlack" data-item-index="3" data-renderer-id="0" transform="translate(2, 146)"><g id="tx_autistic_1uux9rbpkg0zp-fill" stroke="none" fill="#484848"><g><text style="font: 20px Roboto, sans-serif; white-space: pre;" font-weight="20px" font-size="Roboto," font-family="sans-serif"><tspan x="13.95" y="33.5">Autistic children </tspan><tspan x="15.56" y="57.5">have a 40 times </tspan><tspan x="27.63" y="81.5">higher risk of </tspan><tspan x="28.05" y="105.5">injury-related </tspan><tspan x="57.73" y="129.5">death.</tspan></text></g></g></g><g id="g-root-3.cu_sy_94n92fpkg2rn-stroke" data-item-order="999813379" data-item-id="3.cu_sy_94n92fpkg2rn" data-item-class="Part Indexed Fill Stroke ColorStrokeBlack" data-item-index="3" data-renderer-id="0" transform="translate(164.00021362304688, 122)"><g id="3.cu_sy_94n92fpkg2rn-stroke" fill="none" stroke-linecap="round" stroke-linejoin="round" stroke-miterlimit="4" stroke="#484848" stroke-width="2"><g><path d="M 10 226C 10 265.4247 20.5623 302.3825 39.0116 334.1979L 111.6962 292.0639C 100.4421 272.634 94 250.0693 94 226C 94 208.3759 97.4539 191.5586 103.7218 176.1879L 135.3131 194.4272C 139.3345 182.8755 145.5007 172.3284 153.3348 163.2628L 121.7468 145.0255C 145.8984 113.9755 183.6163 94.0001 225.9996 94L 225.9994 10C 106.7062 10.0003 10 106.7067 10 226Z"></path></g></g></g><g id="g-root-3.cu_sy_94n92fpkg2rn-stroke" data-item-order="999813379" data-item-id="3.cu_sy_94n92fpkg2rn" data-item-class="Part Indexed Fill Stroke ColorStrokeBlack" data-item-index="3" data-renderer-id="0" transform="translate(164.00021362304688, 122)"><g id="3.cu_sy_94n92fpkg2rn-stroke" fill="none" stroke-linecap="round" stroke-linejoin="round" stroke-miterlimit="4" stroke="#484848" stroke-width="2"><g><path d="M 10 226C 10 265.4247 20.5623 302.3825 39.0116 334.1979L 111.6962 292.0639C 100.4421 272.634 94 250.0693 94 226C 94 208.3759 97.4539 191.5586 103.7218 176.1879L 135.3131 194.4272C 139.3345 182.8755 145.5007 172.3284 153.3348 163.2628L 121.7468 145.0255C 145.8984 113.9755 183.6163 94.0001 225.9996 94L 225.9994 10C 106.7062 10.0003 10 106.7067 10 226Z"></path></g></g></g><g id="g-root-2.cu_sy_94n92fpkg2rm-stroke" data-item-order="999813381" data-item-id="2.cu_sy_94n92fpkg2rm" data-item-class="Part Indexed Fill Stroke ColorStrokeBlack" data-item-index="2" data-renderer-id="0" transform="translate(193.01101684570312, 404.0390625)"><g id="2.cu_sy_94n92fpkg2rm-stroke" fill="none" stroke-linecap="round" stroke-linejoin="round" stroke-miterlimit="4" stroke="#484848" stroke-width="2"><g><path d="M 196.989 159.9615C 276.9289 159.9615 346.7261 116.5356 384.0772 51.9873L 311.3075 10C 291.3323 44.5042 256.1842 69.1276 214.9888 74.7445L 214.9888 38.2774C 209.1583 39.3834 203.1413 39.9621 196.989 39.9621C 190.8366 39.9621 184.8194 39.3834 178.9888 38.2773L 178.9888 74.7445C 137.8032 69.1287 102.6622 44.5157 82.6846 10.0244L 10 52.1584C 47.3754 116.6124 117.1198 159.9615 196.989 159.9615Z"></path></g></g></g><g id="g-root-2.cu_sy_94n92fpkg2rm-stroke" data-item-order="999813381" data-item-id="2.cu_sy_94n92fpkg2rm" data-item-class="Part Indexed Fill Stroke ColorStrokeBlack" data-item-index="2" data-renderer-id="0" transform="translate(193.01101684570312, 404.0390625)"><g id="2.cu_sy_94n92fpkg2rm-stroke" fill="none" stroke-linecap="round" stroke-linejoin="round" stroke-miterlimit="4" stroke="#484848" stroke-width="2"><g><path d="M 196.989 159.9615C 276.9289 159.9615 346.7261 116.5356 384.0772 51.9873L 311.3075 10C 291.3323 44.5042 256.1842 69.1276 214.9888 74.7445L 214.9888 38.2774C 209.1583 39.3834 203.1413 39.9621 196.989 39.9621C 190.8366 39.9621 184.8194 39.3834 178.9888 38.2773L 178.9888 74.7445C 137.8032 69.1287 102.6622 44.5157 82.6846 10.0244L 10 52.1584C 47.3754 116.6124 117.1198 159.9615 196.989 159.9615Z"></path></g></g></g><g id="g-root-1.cu_sy_dkgr6vpkg1zd-stroke" data-item-order="999813383" data-item-id="1.cu_sy_dkgr6vpkg1zd" data-item-class="Part Indexed Indexed_1 Fill Stroke ColorStrokeBlack" data-item-index="1" data-renderer-id="0" transform="translate(379.99957275390625, 122.0009765625)"><g id="1.cu_sy_dkgr6vpkg1zd-stroke" fill="none" stroke-linecap="round" stroke-linejoin="round" stroke-miterlimit="4" stroke="#484848" stroke-width="2"><g><path d="M 226.0007 226C 226.0007 265.3539 215.4763 302.2497 197.0885 334.0264L 124.3188 292.0391C 135.564 272.6148 142.0007 250.0591 142.0007 226C 142.0007 208.3755 138.5465 191.5578 132.2783 176.1869L 100.6873 194.4259C 96.6659 182.8743 90.4996 172.3273 82.6655 163.2616L 114.253 145.0246C 90.1011 113.9751 52.3832 94 10 94L 10.0007 10C 129.2942 10 226.0007 106.7065 226.0007 226Z"></path></g></g></g><g id="g-root-1.cu_sy_dkgr6vpkg1zd-stroke" data-item-order="999813383" data-item-id="1.cu_sy_dkgr6vpkg1zd" data-item-class="Part Indexed Indexed_1 Fill Stroke ColorStrokeBlack" data-item-index="1" data-renderer-id="0" transform="translate(379.99957275390625, 122.0009765625)"><g id="1.cu_sy_dkgr6vpkg1zd-stroke" fill="none" stroke-linecap="round" stroke-linejoin="round" stroke-miterlimit="4" stroke="#484848" stroke-width="2"><g><path d="M 226.0007 226C 226.0007 265.3539 215.4763 302.2497 197.0885 334.0264L 124.3188 292.0391C 135.564 272.6148 142.0007 250.0591 142.0007 226C 142.0007 208.3755 138.5465 191.5578 132.2783 176.1869L 100.6873 194.4259C 96.6659 182.8743 90.4996 172.3273 82.6655 163.2616L 114.253 145.0246C 90.1011 113.9751 52.3832 94 10 94L 10.0007 10C 129.2942 10 226.0007 106.7065 226.0007 226Z"></path></g></g></g><g id="g-root-0.cu_sy_dkgr6vpkg1zc-stroke" data-item-order="999813385" data-item-id="0.cu_sy_dkgr6vpkg1zc" data-item-class="Part Indexed_0 Fill Stroke ColorFillBlack ColorStrokeBlack" data-item-index="0" data-renderer-id="0" transform="translate(284, 242)"><g id="0.cu_sy_dkgr6vpkg1zc-stroke" fill="none" stroke-linecap="round" stroke-linejoin="round" stroke-miterlimit="4" stroke="#484848" stroke-width="2"><g><path d="M 202 106C 202 159.0193 159.0193 202 106 202C 52.9807 202 10 159.0193 10 106C 10 52.9807 52.9807 10 106 10C 159.0193 10 202 52.9807 202 106Z"></path></g></g></g><g id="g-root-0.cu_sy_dkgr6vpkg1zc-stroke" data-item-order="999813385" data-item-id="0.cu_sy_dkgr6vpkg1zc" data-item-class="Part Indexed_0 Fill Stroke ColorFillBlack ColorStrokeBlack" data-item-index="0" data-renderer-id="0" transform="translate(284, 242)"><g id="0.cu_sy_dkgr6vpkg1zc-stroke" fill="none" stroke-linecap="round" stroke-linejoin="round" stroke-miterlimit="4" stroke="#484848" stroke-width="2"><g><path d="M 202 106C 202 159.0193 159.0193 202 106 202C 52.9807 202 10 159.0193 10 106C 10 52.9807 52.9807 10 106 10C 159.0193 10 202 52.9807 202 106Z"></path></g></g></g><g id="g-root-tx_epilepsy_qn6mcnpkhh56-stroke" data-item-order="1000000000" data-item-id="tx_epilepsy_qn6mcnpkhh56" data-item-class="Label Stroke Indexed Indexed_1" data-item-index="1" data-renderer-id="0" transform="translate(638, 110)"></g><g id="g-root-tx_epilepsy_qn6mcnpkhh56-stroke" data-item-order="1000000000" data-item-id="tx_epilepsy_qn6mcnpkhh56" data-item-class="Label Stroke Indexed Indexed_1" data-item-index="1" data-renderer-id="0" transform="translate(638, 110)"></g><g id="g-root-tx_autistic_1uux9rbpkg0zp-stroke" data-item-order="1000000000" data-item-id="tx_autistic_1uux9rbpkg0zp" data-item-class="Label Stroke Indexed ColorStrokeBlack" data-item-index="3" data-renderer-id="0" transform="translate(2, 146)"></g><g id="g-root-tx_manyauti_1lza9ifpkg1se-stroke" data-item-order="1000000000" data-item-id="tx_manyauti_1lza9ifpkg1se" data-item-class="Label Stroke Indexed ColorStrokeBlack" data-item-index="2" data-renderer-id="0" transform="translate(308, 614)"></g><g id="g-root-tx_upto30of_1hjgrdzpkg2kn-stroke" data-item-order="1000000000" data-item-id="tx_upto30of_1hjgrdzpkg2kn" data-item-class="Label Stroke Indexed Indexed_1 ColorStrokeBlack" data-item-index="1" data-renderer-id="0" transform="translate(596, 146)"></g><g id="g-root-tx_upto30of_1hjgrdzpkg2kn-stroke" data-item-order="1000000000" data-item-id="tx_upto30of_1hjgrdzpkg2kn" data-item-class="Label Stroke Indexed Indexed_1 ColorStrokeBlack" data-item-index="1" data-renderer-id="0" transform="translate(596, 146)"></g><g id="g-root-clif_940rzbpklo96-stroke" data-item-order="1000000000" data-item-id="clif_940rzbpklo96" data-item-class="Icon Stroke Indexed InsideFill InsideColorFill ColorStrokeBlack" data-item-index="3" data-renderer-id="0" transform="translate(206, 230)"><g id="clif_940rzbpklo96-stroke" fill="none" stroke-linecap="round" stroke-linejoin="round" stroke-miterlimit="4" stroke="#484848" stroke-width="2"><g><path d="M 41.48 16C 41.48 18.209139 43.270863 20 45.48 20C 47.68914 20 49.48 18.209139 49.48 16C 49.48 13.790861 47.68914 12 45.48 12C 43.270863 12 41.48 13.790861 41.48 16M 53.759998 33.779999L 53.02 31.639999C 52.199554 29.234158 50.508732 27.222292 48.280003 26C 47.24025 25.425045 46.164711 24.917337 45.060001 24.48L 42 23.24C 38.85746 21.574303 36.239971 19.067608 34.440002 16C 33.968651 15.104828 33.039425 14.545219 32.027744 14.547266C 31.016066 14.549313 30.089109 15.112679 29.621389 16.00975C 29.153667 16.906822 29.222471 17.989361 29.799999 18.82C 31.926971 22.376251 34.893616 25.356627 38.440002 27.5L 36.68 31.879999L 31.059999 32.360001C 29.764194 32.461613 28.500628 32.814869 27.34 33.400002L 22.6 35.779999C 21.704979 36.200302 21.108547 37.073204 21.04229 38.059776C 20.976032 39.046349 21.450386 39.991169 22.281166 40.527374C 23.111946 41.063583 24.168278 41.106705 25.040001 40.639999L 29.780001 38.260002C 30.562334 37.89492 31.416729 37.710373 32.279999 37.720001L 27.360001 43.52C 26.38798 44.668755 26.531248 46.387981 27.68 47.360001C 28.828753 48.332024 30.547979 48.188755 31.52 47.040001L 39.879997 37.139999C 40.591507 36.298954 41.159157 35.346123 41.560001 34.32L 43.419998 29.68C 44.185249 29.992643 44.93301 30.346495 45.66 30.74C 46.701656 31.32383 47.491913 32.270714 47.880001 33.400002L 48.599998 35.540001C 49.08601 36.964897 50.635105 37.726013 52.060001 37.239998C 53.484894 36.75399 54.24601 35.204895 53.759998 33.779999ZM 14.1 46L 21.1 46C 21.652285 46 22.1 46.447716 22.1 47L 22.1 56"></path></g></g></g><g id="g-root-clif_940rzbpklo96-stroke" data-item-order="1000000000" data-item-id="clif_940rzbpklo96" data-item-class="Icon Stroke Indexed InsideFill InsideColorFill ColorStrokeBlack" data-item-index="3" data-renderer-id="0" transform="translate(206, 230)"><g id="clif_940rzbpklo96-stroke" fill="none" stroke-linecap="round" stroke-linejoin="round" stroke-miterlimit="4" stroke="#484848" stroke-width="2"><g><path d="M 41.48 16C 41.48 18.209139 43.270863 20 45.48 20C 47.68914 20 49.48 18.209139 49.48 16C 49.48 13.790861 47.68914 12 45.48 12C 43.270863 12 41.48 13.790861 41.48 16M 53.759998 33.779999L 53.02 31.639999C 52.199554 29.234158 50.508732 27.222292 48.280003 26C 47.24025 25.425045 46.164711 24.917337 45.060001 24.48L 42 23.24C 38.85746 21.574303 36.239971 19.067608 34.440002 16C 33.968651 15.104828 33.039425 14.545219 32.027744 14.547266C 31.016066 14.549313 30.089109 15.112679 29.621389 16.00975C 29.153667 16.906822 29.222471 17.989361 29.799999 18.82C 31.926971 22.376251 34.893616 25.356627 38.440002 27.5L 36.68 31.879999L 31.059999 32.360001C 29.764194 32.461613 28.500628 32.814869 27.34 33.400002L 22.6 35.779999C 21.704979 36.200302 21.108547 37.073204 21.04229 38.059776C 20.976032 39.046349 21.450386 39.991169 22.281166 40.527374C 23.111946 41.063583 24.168278 41.106705 25.040001 40.639999L 29.780001 38.260002C 30.562334 37.89492 31.416729 37.710373 32.279999 37.720001L 27.360001 43.52C 26.38798 44.668755 26.531248 46.387981 27.68 47.360001C 28.828753 48.332024 30.547979 48.188755 31.52 47.040001L 39.879997 37.139999C 40.591507 36.298954 41.159157 35.346123 41.560001 34.32L 43.419998 29.68C 44.185249 29.992643 44.93301 30.346495 45.66 30.74C 46.701656 31.32383 47.491913 32.270714 47.880001 33.400002L 48.599998 35.540001C 49.08601 36.964897 50.635105 37.726013 52.060001 37.239998C 53.484894 36.75399 54.24601 35.204895 53.759998 33.779999ZM 14.1 46L 21.1 46C 21.652285 46 22.1 46.447716 22.1 47L 22.1 56"></path></g></g></g><g id="g-root-tx_injuryri_zitmljpkhgch-stroke" data-item-order="1000000000" data-item-id="tx_injuryri_zitmljpkhgch" data-item-class="Label Stroke Indexed" data-item-index="3" data-renderer-id="0" transform="translate(26, 110)"></g><g id="g-root-chip_vahtifpklp1c-stroke" data-item-order="1000000000" data-item-id="chip_vahtifpklp1c" data-item-class="Icon Stroke Indexed Indexed_1 InsideFill InsideColorFill ColorStrokeBlack" data-item-index="1" data-renderer-id="0" transform="translate(506, 230)"><g id="chip_vahtifpklp1c-stroke" fill="none" stroke-linecap="round" stroke-linejoin="round" stroke-miterlimit="4" stroke="#484848" stroke-width="2"><g><path d="M 28.278 18.771999C 30.214836 18.118927 31.347731 16.110697 30.904995 14.115247C 30.462257 12.119797 28.586336 10.77914 26.555042 11.00649C 24.52375 11.233839 22.990633 12.956045 23 15C 23.005421 15.361034 23.059917 15.719655 23.161999 16.066C 22.939999 16.046 22.726 16 22.5 16C 19.64325 15.986053 17.029131 17.603924 15.767223 20.166893C 14.505317 22.729862 14.817009 25.788288 16.57 28.044001C 13.438807 28.258814 11.008611 30.861448 11.008611 34C 11.008611 37.13855 13.438807 39.741184 16.57 39.956001C 14.817009 42.211712 14.505317 45.270138 15.767223 47.833107C 17.029131 50.396076 19.64325 52.013947 22.5 52C 22.726 52 22.939999 51.953999 23.161999 51.933998C 22.567677 54.036442 23.770287 56.226803 25.863207 56.853825C 27.956127 57.480846 30.16497 56.312527 30.824539 54.229633C 31.484108 52.14674 30.350359 49.919956 28.278 49.228001M 39.722 18.771999C 37.785164 18.118927 36.652267 16.110697 37.095005 14.115247C 37.537743 12.119797 39.413666 10.77914 41.444958 11.00649C 43.47625 11.233839 45.009369 12.956045 45 15C 44.994579 15.361034 44.940079 15.719655 44.838001 16.066C 45.060001 16.046 45.273998 16 45.5 16C 48.35675 15.986053 50.970871 17.603924 52.232777 20.166893C 53.494682 22.729862 53.182991 25.788288 51.43 28.044001C 54.561192 28.258814 56.99139 30.861448 56.99139 34C 56.99139 37.13855 54.561192 39.741184 51.43 39.956001C 53.182991 42.211712 53.494682 45.270138 52.232777 47.833107C 50.970871 50.396076 48.35675 52.013947 45.5 52C 45.273998 52 45.060001 51.953999 44.838001 51.933998C 45.432323 54.036442 44.229713 56.226803 42.136795 56.853825C 40.043873 57.480846 37.83503 56.312527 37.175461 54.229633C 36.515892 52.14674 37.649643 49.919956 39.722 49.228001M 31 14.8C 32.856407 13.728203 35.143593 13.728203 37 14.8M 37 53.200001C 35.143593 54.271797 32.856407 54.271797 31 53.200001M 28 26L 40 26C 40 26 42 26 42 28L 42 40C 42 40 42 42 40 42L 28 42C 28 42 26 42 26 40L 26 28C 26 28 26 26 28 26M 30 22L 30 26M 38 22L 38 26M 22 38L 26 38M 22 30L 26 30M 38 46L 38 42M 30 46L 30 42M 46 30L 42 30M 46 38L 42 38"></path></g></g></g><g id="g-root-chip_vahtifpklp1c-stroke" data-item-order="1000000000" data-item-id="chip_vahtifpklp1c" data-item-class="Icon Stroke Indexed Indexed_1 InsideFill InsideColorFill ColorStrokeBlack" data-item-index="1" data-renderer-id="0" transform="translate(506, 230)"><g id="chip_vahtifpklp1c-stroke" fill="none" stroke-linecap="round" stroke-linejoin="round" stroke-miterlimit="4" stroke="#484848" stroke-width="2"><g><path d="M 28.278 18.771999C 30.214836 18.118927 31.347731 16.110697 30.904995 14.115247C 30.462257 12.119797 28.586336 10.77914 26.555042 11.00649C 24.52375 11.233839 22.990633 12.956045 23 15C 23.005421 15.361034 23.059917 15.719655 23.161999 16.066C 22.939999 16.046 22.726 16 22.5 16C 19.64325 15.986053 17.029131 17.603924 15.767223 20.166893C 14.505317 22.729862 14.817009 25.788288 16.57 28.044001C 13.438807 28.258814 11.008611 30.861448 11.008611 34C 11.008611 37.13855 13.438807 39.741184 16.57 39.956001C 14.817009 42.211712 14.505317 45.270138 15.767223 47.833107C 17.029131 50.396076 19.64325 52.013947 22.5 52C 22.726 52 22.939999 51.953999 23.161999 51.933998C 22.567677 54.036442 23.770287 56.226803 25.863207 56.853825C 27.956127 57.480846 30.16497 56.312527 30.824539 54.229633C 31.484108 52.14674 30.350359 49.919956 28.278 49.228001M 39.722 18.771999C 37.785164 18.118927 36.652267 16.110697 37.095005 14.115247C 37.537743 12.119797 39.413666 10.77914 41.444958 11.00649C 43.47625 11.233839 45.009369 12.956045 45 15C 44.994579 15.361034 44.940079 15.719655 44.838001 16.066C 45.060001 16.046 45.273998 16 45.5 16C 48.35675 15.986053 50.970871 17.603924 52.232777 20.166893C 53.494682 22.729862 53.182991 25.788288 51.43 28.044001C 54.561192 28.258814 56.99139 30.861448 56.99139 34C 56.99139 37.13855 54.561192 39.741184 51.43 39.956001C 53.182991 42.211712 53.494682 45.270138 52.232777 47.833107C 50.970871 50.396076 48.35675 52.013947 45.5 52C 45.273998 52 45.060001 51.953999 44.838001 51.933998C 45.432323 54.036442 44.229713 56.226803 42.136795 56.853825C 40.043873 57.480846 37.83503 56.312527 37.175461 54.229633C 36.515892 52.14674 37.649643 49.919956 39.722 49.228001M 31 14.8C 32.856407 13.728203 35.143593 13.728203 37 14.8M 37 53.200001C 35.143593 54.271797 32.856407 54.271797 31 53.200001M 28 26L 40 26C 40 26 42 26 42 28L 42 40C 42 40 42 42 40 42L 28 42C 28 42 26 42 26 40L 26 28C 26 28 26 26 28 26M 30 22L 30 26M 38 22L 38 26M 22 38L 26 38M 22 30L 26 30M 38 46L 38 42M 30 46L 30 42M 46 30L 42 30M 46 38L 42 38"></path></g></g></g><g id="g-root-plus_hzns87pklngh-stroke" data-item-order="1000000000" data-item-id="plus_hzns87pklngh" data-item-class="Icon Stroke InsideFill InsideColorFill InsideBlackFill ColorStrokeBlack" data-item-index="none" data-renderer-id="0" transform="translate(332, 290)"><g id="plus_hzns87pklngh-stroke" fill="none" stroke-linecap="round" stroke-linejoin="round" stroke-miterlimit="4" stroke="#484848" stroke-width="2"><g><path d="M 12 22C 12 27.522848 16.477154 32 22 32C 27.522848 32 32 27.522848 32 22C 32 16.477154 27.522848 12 22 12C 16.477154 12 12 16.477154 12 22M 52 104C 48.857464 104.029663 46.231873 101.61412 46 98.480003L 44.639999 81.760002C 44.535793 80.740784 43.664196 79.973778 42.639999 80L 33 80C 26.044411 79.977509 20.147499 74.879311 19.119999 68L 16.08 46.880001C 15.595074 43.566841 17.887247 40.487686 21.20026 40.001778C 24.513275 39.515869 27.593107 41.807129 28.08 45.119999L 31.16 66.199997C 31.280392 67.216934 32.136047 67.987022 33.16 68L 42.68 68C 49.930508 67.971344 55.996021 73.498085 56.639999 80.719994L 58 97.519997C 58.109997 99.186813 57.529369 100.825462 56.394459 102.051163C 55.259548 103.276871 53.670338 103.981644 52 104ZM 38 88L 12 88M 77.440002 58.560001C 76.627319 59.312141 75.372673 59.312141 74.559998 58.559998L 52.119999 35.599998C 47.821007 31.425558 46.749939 24.934235 49.48 19.599998L 49.48 19.6C 51.578823 15.602053 55.444859 12.83231 59.905426 12.130913C 64.365997 11.429516 68.895493 12.879112 72.120003 16.040001L 76.120003 19.560001L 80.120003 16.040001C 83.344505 12.879112 87.874008 11.429516 92.334579 12.130913C 96.795143 12.83231 100.661179 15.602053 102.760002 19.6L 102.760002 19.6C 105.490059 24.934235 104.418991 31.425558 100.119995 35.599998ZM 68 36L 84 36M 76 28L 76 44"></path></g></g></g><g id="g-root-plus_hzns87pklngh-stroke" data-item-order="1000000000" data-item-id="plus_hzns87pklngh" data-item-class="Icon Stroke InsideFill InsideColorFill InsideBlackFill ColorStrokeBlack" data-item-index="none" data-renderer-id="0" transform="translate(332, 290)"><g id="plus_hzns87pklngh-stroke" fill="none" stroke-linecap="round" stroke-linejoin="round" stroke-miterlimit="4" stroke="#484848" stroke-width="2"><g><path d="M 12 22C 12 27.522848 16.477154 32 22 32C 27.522848 32 32 27.522848 32 22C 32 16.477154 27.522848 12 22 12C 16.477154 12 12 16.477154 12 22M 52 104C 48.857464 104.029663 46.231873 101.61412 46 98.480003L 44.639999 81.760002C 44.535793 80.740784 43.664196 79.973778 42.639999 80L 33 80C 26.044411 79.977509 20.147499 74.879311 19.119999 68L 16.08 46.880001C 15.595074 43.566841 17.887247 40.487686 21.20026 40.001778C 24.513275 39.515869 27.593107 41.807129 28.08 45.119999L 31.16 66.199997C 31.280392 67.216934 32.136047 67.987022 33.16 68L 42.68 68C 49.930508 67.971344 55.996021 73.498085 56.639999 80.719994L 58 97.519997C 58.109997 99.186813 57.529369 100.825462 56.394459 102.051163C 55.259548 103.276871 53.670338 103.981644 52 104ZM 38 88L 12 88M 77.440002 58.560001C 76.627319 59.312141 75.372673 59.312141 74.559998 58.559998L 52.119999 35.599998C 47.821007 31.425558 46.749939 24.934235 49.48 19.599998L 49.48 19.6C 51.578823 15.602053 55.444859 12.83231 59.905426 12.130913C 64.365997 11.429516 68.895493 12.879112 72.120003 16.040001L 76.120003 19.560001L 80.120003 16.040001C 83.344505 12.879112 87.874008 11.429516 92.334579 12.130913C 96.795143 12.83231 100.661179 15.602053 102.760002 19.6L 102.760002 19.6C 105.490059 24.934235 104.418991 31.425558 100.119995 35.599998ZM 68 36L 84 36M 76 28L 76 44"></path></g></g></g><g id="g-root-tx_injuryri_zitmljpkhgch-stroke" data-item-order="1000000000" data-item-id="tx_injuryri_zitmljpkhgch" data-item-class="Label Stroke Indexed" data-item-index="3" data-renderer-id="0" transform="translate(26, 110)"></g><g id="g-root-tx_challeng_94n92fpkg2ro-stroke" data-item-order="1000000000" data-item-id="tx_challeng_94n92fpkg2ro" data-item-class="Label Stroke Title ColorFillBlack ColorStrokeBlack" data-item-index="none" data-renderer-id="0" transform="translate(236, 2)"></g><g id="g-root-trou_4o79uvpklp1f-stroke" data-item-order="1000000000" data-item-id="trou_4o79uvpklp1f" data-item-class="Icon Stroke Indexed InsideFill InsideColorFill ColorStrokeBlack" data-item-index="2" data-renderer-id="0" transform="translate(356, 488)"><g id="trou_4o79uvpklp1f-stroke" fill="none" stroke-linecap="round" stroke-linejoin="round" stroke-miterlimit="4" stroke="#484848" stroke-width="2"><g><path d="M 45 13.8C 35.904663 8.846849 24.620667 10.583481 17.435547 18.042231C 10.250424 25.50098 8.936552 36.841972 14.226028 45.745926C 19.515505 54.649876 30.103556 58.920418 40.090446 56.177975C 50.077332 53.435532 56.999554 44.35659 57 34C 56.992374 32.996334 56.919556 31.994223 56.781998 31M 57 22C 57 24.761425 54.761425 27 52 27C 49.238575 27 47 24.761425 47 22C 47 19.237999 52 11 52 11C 52 11 57 19.237999 57 22ZM 27 25.5C 27.276142 25.5 27.5 25.723858 27.5 26C 27.5 26.276142 27.276142 26.5 27 26.5C 26.723858 26.5 26.5 26.276142 26.5 26C 26.5 25.723858 26.723858 25.5 27 25.5M 41 25.5C 40.723858 25.5 40.5 25.723858 40.5 26C 40.5 26.276142 40.723858 26.5 41 26.5C 41.276142 26.5 41.5 26.276142 41.5 26C 41.5 25.723858 41.276142 25.5 41 25.5M 25 48C 25 43.029438 29.029438 39 34 39C 38.970562 39 43 43.029438 43 48"></path></g></g></g><g id="g-root-trou_4o79uvpklp1f-stroke" data-item-order="1000000000" data-item-id="trou_4o79uvpklp1f" data-item-class="Icon Stroke Indexed InsideFill InsideColorFill ColorStrokeBlack" data-item-index="2" data-renderer-id="0" transform="translate(356, 488)"><g id="trou_4o79uvpklp1f-stroke" fill="none" stroke-linecap="round" stroke-linejoin="round" stroke-miterlimit="4" stroke="#484848" stroke-width="2"><g><path d="M 45 13.8C 35.904663 8.846849 24.620667 10.583481 17.435547 18.042231C 10.250424 25.50098 8.936552 36.841972 14.226028 45.745926C 19.515505 54.649876 30.103556 58.920418 40.090446 56.177975C 50.077332 53.435532 56.999554 44.35659 57 34C 56.992374 32.996334 56.919556 31.994223 56.781998 31M 57 22C 57 24.761425 54.761425 27 52 27C 49.238575 27 47 24.761425 47 22C 47 19.237999 52 11 52 11C 52 11 57 19.237999 57 22ZM 27 25.5C 27.276142 25.5 27.5 25.723858 27.5 26C 27.5 26.276142 27.276142 26.5 27 26.5C 26.723858 26.5 26.5 26.276142 26.5 26C 26.5 25.723858 26.723858 25.5 27 25.5M 41 25.5C 40.723858 25.5 40.5 25.723858 40.5 26C 40.5 26.276142 40.723858 26.5 41 26.5C 41.276142 26.5 41.5 26.276142 41.5 26C 41.5 25.723858 41.276142 25.5 41 25.5M 25 48C 25 43.029438 29.029438 39 34 39C 38.970562 39 43 43.029438 43 48"></path></g></g></g><g id="g-root-tx_mentalhe_13yn4pzpkhfk8-stroke" data-item-order="1000000000" data-item-id="tx_mentalhe_13yn4pzpkhfk8" data-item-class="Label Stroke Indexed" data-item-index="2" data-renderer-id="0" transform="translate(308, 566)"></g><g id="g-root-tx_mentalhe_13yn4pzpkhfk8-stroke" data-item-order="1000000000" data-item-id="tx_mentalhe_13yn4pzpkhfk8" data-item-class="Label Stroke Indexed" data-item-index="2" data-renderer-id="0" transform="translate(308, 566)"></g><g id="g-root-tx_manyauti_1lza9ifpkg1se-stroke" data-item-order="1000000000" data-item-id="tx_manyauti_1lza9ifpkg1se" data-item-class="Label Stroke Indexed ColorStrokeBlack" data-item-index="2" data-renderer-id="0" transform="translate(308, 614)"></g><g id="g-root-tx_challeng_94n92fpkg2ro-stroke" data-item-order="1000000000" data-item-id="tx_challeng_94n92fpkg2ro" data-item-class="Label Stroke Title ColorFillBlack ColorStrokeBlack" data-item-index="none" data-renderer-id="0" transform="translate(236, 2)"></g><g id="g-root-tx_autistic_1uux9rbpkg0zp-stroke" data-item-order="1000000000" data-item-id="tx_autistic_1uux9rbpkg0zp" data-item-class="Label Stroke Indexed ColorStrokeBlack" data-item-index="3" data-renderer-id="0" transform="translate(2, 146)"></g></g></g></svg> 