<?xml version="1.0" encoding="UTF-8" standalone="yes"?> <svg xmlns="http://www.w3.org/2000/svg" xmlns:xlink="http://www.w3.org/1999/xlink" width="264" height="277" viewBox="0 0 264 277" style="fill:none;stroke:none;fill-rule:evenodd;clip-rule:evenodd;stroke-linecap:round;stroke-linejoin:round;stroke-miterlimit:1.5;" version="1.1"><style id="fontImports">@import url("https://fonts.googleapis.com/css2?family=Roboto:wght@400;700&amp;display=block");</style><g id="items" style="isolation: isolate"><g id="blend" style="mix-blend-mode:normal"><g id="g-root-1_1usebgnm8xlvm-fill" data-item-order="1000000000" data-item-id="1_1usebgnm8xlvm" data-item-class="Icon Stroke Title" data-item-index="none" data-renderer-id="0" transform="translate(32, 3)"></g><g id="g-root-1_1usebgnm8xlvm-fill" data-item-order="1000000000" data-item-id="1_1usebgnm8xlvm" data-item-class="Icon Stroke Title" data-item-index="none" data-renderer-id="0" transform="translate(32, 3)"></g><g id="g-root-tx_earlydet_1qa2wzrm8urk6-fill" data-item-order="1000000000" data-item-id="tx_earlydet_1qa2wzrm8urk6" data-item-class="Label Stroke Title" data-item-index="none" data-renderer-id="0" transform="translate(26, 195)"><g id="tx_earlydet_1qa2wzrm8urk6-fill" stroke="none" fill="#484848"><g><text style="font: 25px Roboto, sans-serif; white-space: pre;" font-weight="25px" font-size="Roboto," font-family="sans-serif"><tspan x="18.54" y="39.5">Early Detection, </tspan><tspan x="15.59" y="69.5">Brighter Futures</tspan></text></g></g></g><g id="g-root-tx_earlydet_1qa2wzrm8urk6-fill" data-item-order="1000000000" data-item-id="tx_earlydet_1qa2wzrm8urk6" data-item-class="Label Stroke Title" data-item-index="none" data-renderer-id="0" transform="translate(26, 195)"><g id="tx_earlydet_1qa2wzrm8urk6-fill" stroke="none" fill="#484848"><g><text style="font: 25px Roboto, sans-serif; white-space: pre;" font-weight="25px" font-size="Roboto," font-family="sans-serif"><tspan x="18.54" y="39.5">Early Detection, </tspan><tspan x="15.59" y="69.5">Brighter Futures</tspan></text></g></g></g><g id="g-root-1_1usebgnm8xlvm-stroke" data-item-order="1000000000" data-item-id="1_1usebgnm8xlvm" data-item-class="Icon Stroke Title" data-item-index="none" data-renderer-id="0" transform="translate(32, 3)"><g id="1_1usebgnm8xlvm-stroke" fill="none" stroke-linecap="round" stroke-linejoin="round" stroke-miterlimit="4" stroke="#484848" stroke-width="2"><g><path d="M 105.017494 13.75C 110.911667 20.48662 112.012245 30.171492 107.779945 38.058876C 103.547638 45.946262 94.86911 50.383743 85.996986 49.196888C 77.124863 48.010033 69.917847 41.447483 67.907501 32.725002M 146.274994 97.592499C 151.702423 99.62487 157.819977 97.834358 161.29509 93.19635C 164.770187 88.55835 164.770187 82.184151 161.29509 77.54615C 157.819977 72.908142 151.702423 71.11763 146.274994 73.150002C 140.50679 45.984543 116.521095 26.55711 88.75 26.55711C 60.978897 26.55711 36.993195 45.984543 31.224998 73.150002C 25.797579 71.11763 19.680023 72.908142 16.204916 77.54615C 12.729811 82.184151 12.729811 88.55835 16.204916 93.19635C 19.680023 97.834358 25.797579 99.62487 31.224998 97.592499C 36.999565 124.753632 60.981808 144.177063 88.75 144.18251M 102.145004 101.5C 94.822273 108.824661 82.947731 108.824661 75.625 101.5M 62.5 78.970001C 62.5 81.041069 64.178932 82.720001 66.25 82.720001C 68.321068 82.720001 70 81.041069 70 78.970001C 70 76.898933 68.321068 75.220001 66.25 75.220001C 64.178932 75.220001 62.5 76.898933 62.5 78.970001M 107.5 78.970001C 107.5 81.041069 109.178932 82.720001 111.25 82.720001C 113.321068 82.720001 115 81.041069 115 78.970001C 115 76.898933 113.321068 75.220001 111.25 75.220001C 109.178932 75.220001 107.5 76.898933 107.5 78.970001M 148.75 130L 148.75 156.25M 163.75 142.494995L 133.75 142.494995M 152.095001 185.619995L 155.55249 184.307495C 172 178.05249 186.25 162.25 186.25 144.692505L 186.25 123.467499C 186.25856 120.863487 184.716232 118.504311 182.327515 117.467506C 171.528442 113.429985 160.106232 111.313072 148.577515 111.212509C 137.148331 111.308876 125.82637 113.426506 115.134995 117.467506C 112.746277 118.504311 111.203964 120.863487 111.212509 123.467506L 111.212502 144.669998C 112.538979 162.764511 124.49971 178.336761 141.639999 184.284988L 145.097504 185.597504C 147.346848 186.470581 149.840057 186.478592 152.095001 185.619995Z"></path></g></g></g><g id="g-root-1_1usebgnm8xlvm-stroke" data-item-order="1000000000" data-item-id="1_1usebgnm8xlvm" data-item-class="Icon Stroke Title" data-item-index="none" data-renderer-id="0" transform="translate(32, 3)"><g id="1_1usebgnm8xlvm-stroke" fill="none" stroke-linecap="round" stroke-linejoin="round" stroke-miterlimit="4" stroke="#484848" stroke-width="2"><g><path d="M 105.017494 13.75C 110.911667 20.48662 112.012245 30.171492 107.779945 38.058876C 103.547638 45.946262 94.86911 50.383743 85.996986 49.196888C 77.124863 48.010033 69.917847 41.447483 67.907501 32.725002M 146.274994 97.592499C 151.702423 99.62487 157.819977 97.834358 161.29509 93.19635C 164.770187 88.55835 164.770187 82.184151 161.29509 77.54615C 157.819977 72.908142 151.702423 71.11763 146.274994 73.150002C 140.50679 45.984543 116.521095 26.55711 88.75 26.55711C 60.978897 26.55711 36.993195 45.984543 31.224998 73.150002C 25.797579 71.11763 19.680023 72.908142 16.204916 77.54615C 12.729811 82.184151 12.729811 88.55835 16.204916 93.19635C 19.680023 97.834358 25.797579 99.62487 31.224998 97.592499C 36.999565 124.753632 60.981808 144.177063 88.75 144.18251M 102.145004 101.5C 94.822273 108.824661 82.947731 108.824661 75.625 101.5M 62.5 78.970001C 62.5 81.041069 64.178932 82.720001 66.25 82.720001C 68.321068 82.720001 70 81.041069 70 78.970001C 70 76.898933 68.321068 75.220001 66.25 75.220001C 64.178932 75.220001 62.5 76.898933 62.5 78.970001M 107.5 78.970001C 107.5 81.041069 109.178932 82.720001 111.25 82.720001C 113.321068 82.720001 115 81.041069 115 78.970001C 115 76.898933 113.321068 75.220001 111.25 75.220001C 109.178932 75.220001 107.5 76.898933 107.5 78.970001M 148.75 130L 148.75 156.25M 163.75 142.494995L 133.75 142.494995M 152.095001 185.619995L 155.55249 184.307495C 172 178.05249 186.25 162.25 186.25 144.692505L 186.25 123.467499C 186.25856 120.863487 184.716232 118.504311 182.327515 117.467506C 171.528442 113.429985 160.106232 111.313072 148.577515 111.212509C 137.148331 111.308876 125.82637 113.426506 115.134995 117.467506C 112.746277 118.504311 111.203964 120.863487 111.212509 123.467506L 111.212502 144.669998C 112.538979 162.764511 124.49971 178.336761 141.639999 184.284988L 145.097504 185.597504C 147.346848 186.470581 149.840057 186.478592 152.095001 185.619995Z"></path></g></g></g><g id="g-root-tx_earlydet_1qa2wzrm8urk6-stroke" data-item-order="1000000000" data-item-id="tx_earlydet_1qa2wzrm8urk6" data-item-class="Label Stroke Title" data-item-index="none" data-renderer-id="0" transform="translate(26, 195)"></g><g id="g-root-tx_earlydet_1qa2wzrm8urk6-stroke" data-item-order="1000000000" data-item-id="tx_earlydet_1qa2wzrm8urk6" data-item-class="Label Stroke Title" data-item-index="none" data-renderer-id="0" transform="translate(26, 195)"></g></g></g></svg> 