<?xml version="1.0" encoding="UTF-8" standalone="yes"?> <svg xmlns="http://www.w3.org/2000/svg" xmlns:xlink="http://www.w3.org/1999/xlink" width="578" height="433" viewBox="0 0 578 433" style="fill:none;stroke:none;fill-rule:evenodd;clip-rule:evenodd;stroke-linecap:round;stroke-linejoin:round;stroke-miterlimit:1.5;" version="1.1"><style id="fontImports">@import url("https://fonts.googleapis.com/css2?family=Roboto:wght@400;700&amp;display=block");</style><g id="items" style="isolation: isolate"><g id="blend" style="mix-blend-mode:normal"><g id="g-root-4.cu_sy_dhyi5jpkiwhx-fill" data-item-order="999907269" data-item-id="4.cu_sy_dhyi5jpkiwhx" data-item-class="Part Indexed Stroke ColorFillGray ColorStrokeBlack" data-item-index="4" data-renderer-id="0" transform="translate(110.95700073242188, 243.75)"></g><g id="g-root-4.cu_sy_dhyi5jpkiwhx-fill" data-item-order="999907269" data-item-id="4.cu_sy_dhyi5jpkiwhx" data-item-class="Part Indexed Stroke ColorFillGray ColorStrokeBlack" data-item-index="4" data-renderer-id="0" transform="translate(110.95700073242188, 243.75)"></g><g id="g-root-3.Exclude_sy_hxs09zpkivpo-fill" data-item-order="999907270" data-item-id="3.Exclude_sy_hxs09zpkivpo" data-item-class="Part Indexed Fill Stroke ColorFillGray ColorStrokeBlack" data-item-index="3" data-renderer-id="0" transform="translate(231.5980224609375, 257)"><g id="3.Exclude_sy_hxs09zpkivpo-fill" stroke="none" fill="#888888"><g><path d="M 57.401993 10C 49.928993 10 43.652993 15.122 41.893993 22.047L 10.591993 124.12C 9.999993 126.049 11.441993 128 13.459993 128L 101.343993 128C 103.360993 128 104.803993 126.049 104.211993 124.12L 72.911993 22.054C 71.153993 15.126 64.876993 10 57.401993 10ZM 57.401993 33C 61.267993 33 64.401993 29.866 64.401993 26C 64.401993 22.134 61.267993 19 57.401993 19C 53.535993 19 50.401993 22.134 50.401993 26C 50.401993 29.866 53.535993 33 57.401993 33Z"></path></g></g></g><g id="g-root-3.Exclude_sy_hxs09zpkivpo-fill" data-item-order="999907270" data-item-id="3.Exclude_sy_hxs09zpkivpo" data-item-class="Part Indexed Fill Stroke ColorFillGray ColorStrokeBlack" data-item-index="3" data-renderer-id="0" transform="translate(231.5980224609375, 257)"><g id="3.Exclude_sy_hxs09zpkivpo-fill" stroke="none" fill="#888888"><g><path d="M 57.401993 10C 49.928993 10 43.652993 15.122 41.893993 22.047L 10.591993 124.12C 9.999993 126.049 11.441993 128 13.459993 128L 101.343993 128C 103.360993 128 104.803993 126.049 104.211993 124.12L 72.911993 22.054C 71.153993 15.126 64.876993 10 57.401993 10ZM 57.401993 33C 61.267993 33 64.401993 29.866 64.401993 26C 64.401993 22.134 61.267993 19 57.401993 19C 53.535993 19 50.401993 22.134 50.401993 26C 50.401993 29.866 53.535993 33 57.401993 33Z"></path></g></g></g><g id="g-root-2.right-bucket_sy_hxs09zpkivpn-fill" data-item-order="999907272" data-item-id="2.right-bucket_sy_hxs09zpkivpn" data-item-class="Part Indexed Fill Stroke ColorStrokeBlack" data-item-index="2" data-renderer-id="0" transform="translate(327, 207)"><g id="2.right-bucket_sy_hxs09zpkivpn-fill" stroke="none" fill="#da5da8"><g><path d="M 11.081 15.729C 10.338 14.904 10 13.826 10 12.716L 10 12.716C 10 11.216 11.216 10 12.716 10L 235.284 10C 236.784 10 238 11.216 238 12.716L 238 12.716C 238 13.826 237.662 14.904 236.919 15.729C 231.551 21.692 204.717 46 124 46C 43.283 46 16.449 21.692 11.081 15.729Z"></path></g></g></g><g id="g-root-2.right-bucket_sy_hxs09zpkivpn-fill" data-item-order="999907272" data-item-id="2.right-bucket_sy_hxs09zpkivpn" data-item-class="Part Indexed Fill Stroke ColorStrokeBlack" data-item-index="2" data-renderer-id="0" transform="translate(327, 207)"><g id="2.right-bucket_sy_hxs09zpkivpn-fill" stroke="none" fill="#da5da8"><g><path d="M 11.081 15.729C 10.338 14.904 10 13.826 10 12.716L 10 12.716C 10 11.216 11.216 10 12.716 10L 235.284 10C 236.784 10 238 11.216 238 12.716L 238 12.716C 238 13.826 237.662 14.904 236.919 15.729C 231.551 21.692 204.717 46 124 46C 43.283 46 16.449 21.692 11.081 15.729Z"></path></g></g></g><g id="g-root-1.left-bucket_sy_hxs09zpkivpm-fill" data-item-order="999907274" data-item-id="1.left-bucket_sy_hxs09zpkivpm" data-item-class="Part Indexed Indexed_1 Fill Stroke ColorStrokeBlack" data-item-index="1" data-renderer-id="0" transform="translate(3, 207)"><g id="1.left-bucket_sy_hxs09zpkivpm-fill" stroke="none" fill="#17b0e3"><g><path d="M 11.0812 15.729C 10.3384 14.904 10 13.826 10 12.716L 10 12.716C 10 11.216 11.2158 10 12.7157 10L 235.284 10C 236.784 10 238 11.216 238 12.716L 238 12.716C 238 13.826 237.662 14.904 236.919 15.729C 231.551 21.692 204.717 46 124 46C 43.2826 46 16.4488 21.692 11.0812 15.729Z"></path></g></g></g><g id="g-root-1.left-bucket_sy_hxs09zpkivpm-fill" data-item-order="999907274" data-item-id="1.left-bucket_sy_hxs09zpkivpm" data-item-class="Part Indexed Indexed_1 Fill Stroke ColorStrokeBlack" data-item-index="1" data-renderer-id="0" transform="translate(3, 207)"><g id="1.left-bucket_sy_hxs09zpkivpm-fill" stroke="none" fill="#17b0e3"><g><path d="M 11.0812 15.729C 10.3384 14.904 10 13.826 10 12.716L 10 12.716C 10 11.216 11.2158 10 12.7157 10L 235.284 10C 236.784 10 238 11.216 238 12.716L 238 12.716C 238 13.826 237.662 14.904 236.919 15.729C 231.551 21.692 204.717 46 124 46C 43.2826 46 16.4488 21.692 11.0812 15.729Z"></path></g></g></g><g id="g-root-yoyo_vahgtjpkkahb-fill" data-item-order="1000000000" data-item-id="yoyo_vahgtjpkkahb" data-item-class="Icon Stroke Indexed ColorStrokeBlack" data-item-index="2" data-renderer-id="0" transform="translate(15, 75)"></g><g id="g-root-yoyo_vahgtjpkkahb-fill" data-item-order="1000000000" data-item-id="yoyo_vahgtjpkkahb" data-item-class="Icon Stroke Indexed ColorStrokeBlack" data-item-index="2" data-renderer-id="0" transform="translate(15, 75)"></g><g id="g-root-tx_earlymot_74gvbpkiux3-fill" data-item-order="1000000000" data-item-id="tx_earlymot_74gvbpkiux3" data-item-class="Label Stroke Indexed ColorStrokeBlack" data-item-index="2" data-renderer-id="0" transform="translate(75, 75)"><g id="tx_earlymot_74gvbpkiux3-fill" stroke="none" fill="#666666"><g><text style="font: 20px Roboto, sans-serif; white-space: pre;" font-weight="20px" font-size="Roboto," font-family="sans-serif"><tspan x="12" y="33.5">Early motor skill </tspan><tspan x="12" y="57.5">issues</tspan></text></g></g></g><g id="g-root-tx_earlymot_74gvbpkiux3-fill" data-item-order="1000000000" data-item-id="tx_earlymot_74gvbpkiux3" data-item-class="Label Stroke Indexed ColorStrokeBlack" data-item-index="2" data-renderer-id="0" transform="translate(75, 75)"><g id="tx_earlymot_74gvbpkiux3-fill" stroke="none" fill="#666666"><g><text style="font: 20px Roboto, sans-serif; white-space: pre;" font-weight="20px" font-size="Roboto," font-family="sans-serif"><tspan x="12" y="33.5">Early motor skill </tspan><tspan x="12" y="57.5">issues</tspan></text></g></g></g><g id="g-root-mask_1464h2fpkk9om-fill" data-item-order="1000000000" data-item-id="mask_1464h2fpkk9om" data-item-class="Icon Stroke Indexed ColorStrokeBlack" data-item-index="5" data-renderer-id="0" transform="translate(339, 75)"></g><g id="g-root-mask_1464h2fpkk9om-fill" data-item-order="1000000000" data-item-id="mask_1464h2fpkk9om" data-item-class="Icon Stroke Indexed ColorStrokeBlack" data-item-index="5" data-renderer-id="0" transform="translate(339, 75)"></g><g id="g-root-tx_symptomm_1lws0h3pkiway-fill" data-item-order="1000000000" data-item-id="tx_symptomm_1lws0h3pkiway" data-item-class="Label Stroke Indexed ColorStrokeBlack" data-item-index="5" data-renderer-id="0" transform="translate(399, 75)"><g id="tx_symptomm_1lws0h3pkiway-fill" stroke="none" fill="#666666"><g><text style="font: 20px Roboto, sans-serif; white-space: pre;" font-weight="20px" font-size="Roboto," font-family="sans-serif"><tspan x="12" y="33.5">Symptom </tspan><tspan x="12" y="57.5">masking</tspan></text></g></g></g><g id="g-root-tx_symptomm_1lws0h3pkiway-fill" data-item-order="1000000000" data-item-id="tx_symptomm_1lws0h3pkiway" data-item-class="Label Stroke Indexed ColorStrokeBlack" data-item-index="5" data-renderer-id="0" transform="translate(399, 75)"><g id="tx_symptomm_1lws0h3pkiway-fill" stroke="none" fill="#666666"><g><text style="font: 20px Roboto, sans-serif; white-space: pre;" font-weight="20px" font-size="Roboto," font-family="sans-serif"><tspan x="12" y="33.5">Symptom </tspan><tspan x="12" y="57.5">masking</tspan></text></g></g></g><g id="g-root-eye_1unf813pklnnt-fill" data-item-order="1000000000" data-item-id="eye_1unf813pklnnt" data-item-class="Icon Stroke Indexed ColorStrokeBlack" data-item-index="3" data-renderer-id="0" transform="translate(15, 147)"></g><g id="g-root-eye_1unf813pklnnt-fill" data-item-order="1000000000" data-item-id="eye_1unf813pklnnt" data-item-class="Icon Stroke Indexed ColorStrokeBlack" data-item-index="3" data-renderer-id="0" transform="translate(15, 147)"></g><g id="g-root-nine_1lws0h3pkkah8-fill" data-item-order="1000000000" data-item-id="nine_1lws0h3pkkah8" data-item-class="Icon Stroke Indexed Indexed_1 ColorStrokeBlack" data-item-index="1" data-renderer-id="0" transform="translate(15, 3)"></g><g id="g-root-tx_higherdi_4mxyzrpkiu4u-fill" data-item-order="1000000000" data-item-id="tx_higherdi_4mxyzrpkiu4u" data-item-class="Label Stroke Indexed ColorStrokeBlack" data-item-index="3" data-renderer-id="0" transform="translate(75, 147)"><g id="tx_higherdi_4mxyzrpkiu4u-fill" stroke="none" fill="#666666"><g><text style="font: 20px Roboto, sans-serif; white-space: pre;" font-weight="20px" font-size="Roboto," font-family="sans-serif"><tspan x="12" y="33.5">Higher diagnosis </tspan><tspan x="12" y="57.5">rate</tspan></text></g></g></g><g id="g-root-ribb_18lxz6vpkk8wd-fill" data-item-order="1000000000" data-item-id="ribb_18lxz6vpkk8wd" data-item-class="Icon Stroke Indexed ColorStrokeBlack" data-item-index="6" data-renderer-id="0" transform="translate(339, 147)"></g><g id="g-root-ribb_18lxz6vpkk8wd-fill" data-item-order="1000000000" data-item-id="ribb_18lxz6vpkk8wd" data-item-class="Icon Stroke Indexed ColorStrokeBlack" data-item-index="6" data-renderer-id="0" transform="translate(339, 147)"></g><g id="g-root-tx_potentia_1lws0h3pkiwax-fill" data-item-order="1000000000" data-item-id="tx_potentia_1lws0h3pkiwax" data-item-class="Label Stroke Indexed ColorStrokeBlack" data-item-index="6" data-renderer-id="0" transform="translate(399, 147)"><g id="tx_potentia_1lws0h3pkiwax-fill" stroke="none" fill="#666666"><g><text style="font: 20px Roboto, sans-serif; white-space: pre;" font-weight="20px" font-size="Roboto," font-family="sans-serif"><tspan x="12" y="33.5">Potential </tspan><tspan x="12" y="57.5">underdiagnosis</tspan></text></g></g></g><g id="g-root-tx_potentia_1lws0h3pkiwax-fill" data-item-order="1000000000" data-item-id="tx_potentia_1lws0h3pkiwax" data-item-class="Label Stroke Indexed ColorStrokeBlack" data-item-index="6" data-renderer-id="0" transform="translate(399, 147)"><g id="tx_potentia_1lws0h3pkiwax-fill" stroke="none" fill="#666666"><g><text style="font: 20px Roboto, sans-serif; white-space: pre;" font-weight="20px" font-size="Roboto," font-family="sans-serif"><tspan x="12" y="33.5">Potential </tspan><tspan x="12" y="57.5">underdiagnosis</tspan></text></g></g></g><g id="g-root-tx_delayedd_1hhkzfrpkitxf-fill" data-item-order="1000000000" data-item-id="tx_delayedd_1hhkzfrpkitxf" data-item-class="Label Stroke Indexed ColorStrokeBlack" data-item-index="4" data-renderer-id="0" transform="translate(399, 3)"><g id="tx_delayedd_1hhkzfrpkitxf-fill" stroke="none" fill="#666666"><g><text style="font: 20px Roboto, sans-serif; white-space: pre;" font-weight="20px" font-size="Roboto," font-family="sans-serif"><tspan x="12" y="33.5">Delayed </tspan><tspan x="12" y="57.5">diagnosis</tspan></text></g></g></g><g id="g-root-tx_delayedd_1hhkzfrpkitxf-fill" data-item-order="1000000000" data-item-id="tx_delayedd_1hhkzfrpkitxf" data-item-class="Label Stroke Indexed ColorStrokeBlack" data-item-index="4" data-renderer-id="0" transform="translate(399, 3)"><g id="tx_delayedd_1hhkzfrpkitxf-fill" stroke="none" fill="#666666"><g><text style="font: 20px Roboto, sans-serif; white-space: pre;" font-weight="20px" font-size="Roboto," font-family="sans-serif"><tspan x="12" y="33.5">Delayed </tspan><tspan x="12" y="57.5">diagnosis</tspan></text></g></g></g><g id="g-root-tx_genderdi_18lxz6vpkiuq6-fill" data-item-order="1000000000" data-item-id="tx_genderdi_18lxz6vpkiuq6" data-item-class="Label Stroke Title ColorStrokeBlack" data-item-index="none" data-renderer-id="0" transform="translate(99, 387)"><g id="tx_genderdi_18lxz6vpkiuq6-fill" stroke="none" fill="#666666"><g><text style="font: 20px Roboto, sans-serif; white-space: pre;" font-weight="20px" font-size="Roboto," font-family="sans-serif"><tspan x="17.7" y="33.5">Gender disparities in autism diagnosis.</tspan></text></g></g></g><g id="g-root-woma_mfgxnrpkk8w0-fill" data-item-order="1000000000" data-item-id="woma_mfgxnrpkk8w0" data-item-class="Icon Stroke Indexed ColorStrokeBlack" data-item-index="4" data-renderer-id="0" transform="translate(339, 3)"></g><g id="g-root-tx_diagnost_1usf0pzpkivi8-fill" data-item-order="1000000000" data-item-id="tx_diagnost_1usf0pzpkivi8" data-item-class="Label Stroke Indexed Indexed_1 ColorStrokeBlack" data-item-index="1" data-renderer-id="0" transform="translate(75, 15)"><g id="tx_diagnost_1usf0pzpkivi8-fill" stroke="none" fill="#666666"><g><text style="font: 20px Roboto, sans-serif; white-space: pre;" font-weight="20px" font-size="Roboto," font-family="sans-serif"><tspan x="12" y="33.5">Diagnostic bias</tspan></text></g></g></g><g id="g-root-tx_diagnost_1usf0pzpkivi8-fill" data-item-order="1000000000" data-item-id="tx_diagnost_1usf0pzpkivi8" data-item-class="Label Stroke Indexed Indexed_1 ColorStrokeBlack" data-item-index="1" data-renderer-id="0" transform="translate(75, 15)"><g id="tx_diagnost_1usf0pzpkivi8-fill" stroke="none" fill="#666666"><g><text style="font: 20px Roboto, sans-serif; white-space: pre;" font-weight="20px" font-size="Roboto," font-family="sans-serif"><tspan x="12" y="33.5">Diagnostic bias</tspan></text></g></g></g><g id="g-root-nine_1lws0h3pkkah8-fill" data-item-order="1000000000" data-item-id="nine_1lws0h3pkkah8" data-item-class="Icon Stroke Indexed Indexed_1 ColorStrokeBlack" data-item-index="1" data-renderer-id="0" transform="translate(15, 3)"></g><g id="g-root-tx_boys_1hhkzfrpkitxg-fill" data-item-order="1000000000" data-item-id="tx_boys_1hhkzfrpkitxg" data-item-class="Label Stroke Indexed ColorStrokeBlack" data-item-index="none" data-renderer-id="0" transform="translate(93, 315)"><g id="tx_boys_1hhkzfrpkitxg-fill" stroke="none" fill="#666666"><g><text style="font: 20px Roboto, sans-serif; white-space: pre;" font-weight="20px" font-size="Roboto," font-family="sans-serif"><tspan x="12.25" y="33.5">Boys</tspan></text></g></g></g><g id="g-root-tx_boys_1hhkzfrpkitxg-fill" data-item-order="1000000000" data-item-id="tx_boys_1hhkzfrpkitxg" data-item-class="Label Stroke Indexed ColorStrokeBlack" data-item-index="none" data-renderer-id="0" transform="translate(93, 315)"><g id="tx_boys_1hhkzfrpkitxg-fill" stroke="none" fill="#666666"><g><text style="font: 20px Roboto, sans-serif; white-space: pre;" font-weight="20px" font-size="Roboto," font-family="sans-serif"><tspan x="12.25" y="33.5">Boys</tspan></text></g></g></g><g id="g-root-tx_girls_18lxz6vpkiuq5-fill" data-item-order="1000000000" data-item-id="tx_girls_18lxz6vpkiuq5" data-item-class="Label Stroke Indexed ColorStrokeBlack" data-item-index="none" data-renderer-id="0" transform="translate(417, 315)"><g id="tx_girls_18lxz6vpkiuq5-fill" stroke="none" fill="#666666"><g><text style="font: 20px Roboto, sans-serif; white-space: pre;" font-weight="20px" font-size="Roboto," font-family="sans-serif"><tspan x="13.79" y="33.5">Girls</tspan></text></g></g></g><g id="g-root-tx_girls_18lxz6vpkiuq5-fill" data-item-order="1000000000" data-item-id="tx_girls_18lxz6vpkiuq5" data-item-class="Label Stroke Indexed ColorStrokeBlack" data-item-index="none" data-renderer-id="0" transform="translate(417, 315)"><g id="tx_girls_18lxz6vpkiuq5-fill" stroke="none" fill="#666666"><g><text style="font: 20px Roboto, sans-serif; white-space: pre;" font-weight="20px" font-size="Roboto," font-family="sans-serif"><tspan x="13.79" y="33.5">Girls</tspan></text></g></g></g><g id="g-root-tx_genderdi_18lxz6vpkiuq6-fill" data-item-order="1000000000" data-item-id="tx_genderdi_18lxz6vpkiuq6" data-item-class="Label Stroke Title ColorStrokeBlack" data-item-index="none" data-renderer-id="0" transform="translate(99, 387)"><g id="tx_genderdi_18lxz6vpkiuq6-fill" stroke="none" fill="#666666"><g><text style="font: 20px Roboto, sans-serif; white-space: pre;" font-weight="20px" font-size="Roboto," font-family="sans-serif"><tspan x="17.7" y="33.5">Gender disparities in autism diagnosis.</tspan></text></g></g></g><g id="g-root-woma_mfgxnrpkk8w0-fill" data-item-order="1000000000" data-item-id="woma_mfgxnrpkk8w0" data-item-class="Icon Stroke Indexed ColorStrokeBlack" data-item-index="4" data-renderer-id="0" transform="translate(339, 3)"></g><g id="g-root-tx_higherdi_4mxyzrpkiu4u-fill" data-item-order="1000000000" data-item-id="tx_higherdi_4mxyzrpkiu4u" data-item-class="Label Stroke Indexed ColorStrokeBlack" data-item-index="3" data-renderer-id="0" transform="translate(75, 147)"><g id="tx_higherdi_4mxyzrpkiu4u-fill" stroke="none" fill="#666666"><g><text style="font: 20px Roboto, sans-serif; white-space: pre;" font-weight="20px" font-size="Roboto," font-family="sans-serif"><tspan x="12" y="33.5">Higher diagnosis </tspan><tspan x="12" y="57.5">rate</tspan></text></g></g></g><g id="g-root-4.cu_sy_dhyi5jpkiwhx-stroke" data-item-order="999907269" data-item-id="4.cu_sy_dhyi5jpkiwhx" data-item-class="Part Indexed Stroke ColorFillGray ColorStrokeBlack" data-item-index="4" data-renderer-id="0" transform="translate(110.95700073242188, 243.75)"><g id="4.cu_sy_dhyi5jpkiwhx-stroke" fill="none" stroke-linecap="round" stroke-linejoin="round" stroke-miterlimit="4" stroke="#666666" stroke-width="2"><g><path d="M 340.042999 45.25C 343.356999 45.25 346.042999 42.564 346.042999 39.25C 346.042999 35.936 343.356999 33.25 340.042999 33.25C 336.728999 33.25 334.042999 35.936 334.042999 39.25C 334.042999 42.564 336.728999 45.25 340.042999 45.25ZM 16.021999 45.25C 19.346999 45.25 22.042999 42.564 22.042999 39.25C 22.042999 35.936 19.346999 33.25 16.021999 33.25C 12.695999 33.25 9.999999 35.936 9.999999 39.25C 9.999999 42.564 12.695999 45.25 16.021999 45.25ZM 340.042999 33.25L 340.042999 10M 16.042999 10.25L 16.042999 33.25M 334.057999 39.275L 195.042999 39.275M 161.042999 39.275L 22.042999 39.275"></path></g></g></g><g id="g-root-4.cu_sy_dhyi5jpkiwhx-stroke" data-item-order="999907269" data-item-id="4.cu_sy_dhyi5jpkiwhx" data-item-class="Part Indexed Stroke ColorFillGray ColorStrokeBlack" data-item-index="4" data-renderer-id="0" transform="translate(110.95700073242188, 243.75)"><g id="4.cu_sy_dhyi5jpkiwhx-stroke" fill="none" stroke-linecap="round" stroke-linejoin="round" stroke-miterlimit="4" stroke="#666666" stroke-width="2"><g><path d="M 340.042999 45.25C 343.356999 45.25 346.042999 42.564 346.042999 39.25C 346.042999 35.936 343.356999 33.25 340.042999 33.25C 336.728999 33.25 334.042999 35.936 334.042999 39.25C 334.042999 42.564 336.728999 45.25 340.042999 45.25ZM 16.021999 45.25C 19.346999 45.25 22.042999 42.564 22.042999 39.25C 22.042999 35.936 19.346999 33.25 16.021999 33.25C 12.695999 33.25 9.999999 35.936 9.999999 39.25C 9.999999 42.564 12.695999 45.25 16.021999 45.25ZM 340.042999 33.25L 340.042999 10M 16.042999 10.25L 16.042999 33.25M 334.057999 39.275L 195.042999 39.275M 161.042999 39.275L 22.042999 39.275"></path></g></g></g><g id="g-root-3.Exclude_sy_hxs09zpkivpo-stroke" data-item-order="999907270" data-item-id="3.Exclude_sy_hxs09zpkivpo" data-item-class="Part Indexed Fill Stroke ColorFillGray ColorStrokeBlack" data-item-index="3" data-renderer-id="0" transform="translate(231.5980224609375, 257)"><g id="3.Exclude_sy_hxs09zpkivpo-stroke" fill="none" stroke-linecap="round" stroke-linejoin="round" stroke-miterlimit="4" stroke="#2c2c2c" stroke-width="2"><g><path d="M 57.401993 10C 49.928993 10 43.652993 15.122 41.893993 22.047L 10.591993 124.12C 9.999993 126.049 11.441993 128 13.459993 128L 101.343993 128C 103.360993 128 104.803993 126.049 104.211993 124.12L 72.911993 22.054C 71.153993 15.126 64.876993 10 57.401993 10ZM 57.401993 33C 61.267993 33 64.401993 29.866 64.401993 26C 64.401993 22.134 61.267993 19 57.401993 19C 53.535993 19 50.401993 22.134 50.401993 26C 50.401993 29.866 53.535993 33 57.401993 33Z"></path></g></g></g><g id="g-root-3.Exclude_sy_hxs09zpkivpo-stroke" data-item-order="999907270" data-item-id="3.Exclude_sy_hxs09zpkivpo" data-item-class="Part Indexed Fill Stroke ColorFillGray ColorStrokeBlack" data-item-index="3" data-renderer-id="0" transform="translate(231.5980224609375, 257)"><g id="3.Exclude_sy_hxs09zpkivpo-stroke" fill="none" stroke-linecap="round" stroke-linejoin="round" stroke-miterlimit="4" stroke="#2c2c2c" stroke-width="2"><g><path d="M 57.401993 10C 49.928993 10 43.652993 15.122 41.893993 22.047L 10.591993 124.12C 9.999993 126.049 11.441993 128 13.459993 128L 101.343993 128C 103.360993 128 104.803993 126.049 104.211993 124.12L 72.911993 22.054C 71.153993 15.126 64.876993 10 57.401993 10ZM 57.401993 33C 61.267993 33 64.401993 29.866 64.401993 26C 64.401993 22.134 61.267993 19 57.401993 19C 53.535993 19 50.401993 22.134 50.401993 26C 50.401993 29.866 53.535993 33 57.401993 33Z"></path></g></g></g><g id="g-root-2.right-bucket_sy_hxs09zpkivpn-stroke" data-item-order="999907272" data-item-id="2.right-bucket_sy_hxs09zpkivpn" data-item-class="Part Indexed Fill Stroke ColorStrokeBlack" data-item-index="2" data-renderer-id="0" transform="translate(327, 207)"><g id="2.right-bucket_sy_hxs09zpkivpn-stroke" fill="none" stroke-linecap="round" stroke-linejoin="round" stroke-miterlimit="4" stroke="#2c2c2c" stroke-width="2"><g><path d="M 11.081 15.729C 10.338 14.904 10 13.826 10 12.716L 10 12.716C 10 11.216 11.216 10 12.716 10L 235.284 10C 236.784 10 238 11.216 238 12.716L 238 12.716C 238 13.826 237.662 14.904 236.919 15.729C 231.551 21.692 204.717 46 124 46C 43.283 46 16.449 21.692 11.081 15.729Z"></path></g></g></g><g id="g-root-2.right-bucket_sy_hxs09zpkivpn-stroke" data-item-order="999907272" data-item-id="2.right-bucket_sy_hxs09zpkivpn" data-item-class="Part Indexed Fill Stroke ColorStrokeBlack" data-item-index="2" data-renderer-id="0" transform="translate(327, 207)"><g id="2.right-bucket_sy_hxs09zpkivpn-stroke" fill="none" stroke-linecap="round" stroke-linejoin="round" stroke-miterlimit="4" stroke="#2c2c2c" stroke-width="2"><g><path d="M 11.081 15.729C 10.338 14.904 10 13.826 10 12.716L 10 12.716C 10 11.216 11.216 10 12.716 10L 235.284 10C 236.784 10 238 11.216 238 12.716L 238 12.716C 238 13.826 237.662 14.904 236.919 15.729C 231.551 21.692 204.717 46 124 46C 43.283 46 16.449 21.692 11.081 15.729Z"></path></g></g></g><g id="g-root-1.left-bucket_sy_hxs09zpkivpm-stroke" data-item-order="999907274" data-item-id="1.left-bucket_sy_hxs09zpkivpm" data-item-class="Part Indexed Indexed_1 Fill Stroke ColorStrokeBlack" data-item-index="1" data-renderer-id="0" transform="translate(3, 207)"><g id="1.left-bucket_sy_hxs09zpkivpm-stroke" fill="none" stroke-linecap="round" stroke-linejoin="round" stroke-miterlimit="4" stroke="#2c2c2c" stroke-width="2"><g><path d="M 11.0812 15.729C 10.3384 14.904 10 13.826 10 12.716L 10 12.716C 10 11.216 11.2158 10 12.7157 10L 235.284 10C 236.784 10 238 11.216 238 12.716L 238 12.716C 238 13.826 237.662 14.904 236.919 15.729C 231.551 21.692 204.717 46 124 46C 43.2826 46 16.4488 21.692 11.0812 15.729Z"></path></g></g></g><g id="g-root-1.left-bucket_sy_hxs09zpkivpm-stroke" data-item-order="999907274" data-item-id="1.left-bucket_sy_hxs09zpkivpm" data-item-class="Part Indexed Indexed_1 Fill Stroke ColorStrokeBlack" data-item-index="1" data-renderer-id="0" transform="translate(3, 207)"><g id="1.left-bucket_sy_hxs09zpkivpm-stroke" fill="none" stroke-linecap="round" stroke-linejoin="round" stroke-miterlimit="4" stroke="#2c2c2c" stroke-width="2"><g><path d="M 11.0812 15.729C 10.3384 14.904 10 13.826 10 12.716L 10 12.716C 10 11.216 11.2158 10 12.7157 10L 235.284 10C 236.784 10 238 11.216 238 12.716L 238 12.716C 238 13.826 237.662 14.904 236.919 15.729C 231.551 21.692 204.717 46 124 46C 43.2826 46 16.4488 21.692 11.0812 15.729Z"></path></g></g></g><g id="g-root-yoyo_vahgtjpkkahb-stroke" data-item-order="1000000000" data-item-id="yoyo_vahgtjpkkahb" data-item-class="Icon Stroke Indexed ColorStrokeBlack" data-item-index="2" data-renderer-id="0" transform="translate(15, 75)"><g id="yoyo_vahgtjpkkahb-stroke" fill="none" stroke-linecap="round" stroke-linejoin="round" stroke-miterlimit="4" stroke="#666666" stroke-width="2"><g><path d="M 22.369999 52.827999C 20.797449 50.326149 20.674789 47.176575 22.048 44.559998M 16.656 56.400002C 13.493524 51.552162 13.493524 45.293839 16.656 40.445999M 29.403999 47C 29.404001 52.521744 33.880257 56.998001 39.402 56.998001C 44.923744 56.998001 49.400002 52.521744 49.400002 47C 49.400002 41.478256 44.923744 37.001999 39.402 37.001999C 33.880257 37.001999 29.404001 41.478256 29.404001 47M 39.400002 44C 41.056854 44 42.400002 45.343147 42.400002 47C 42.400002 48.656857 41.056854 50 39.400002 50C 37.743149 50 36.400002 48.656857 36.400002 47C 36.400002 45.343147 37.743149 44 39.400002 44ZM 29.233999 20.133999L 20.743999 23.852001C 18.868452 24.673225 16.682327 23.817942 15.862 21.942001L 15.862 21.942001C 15.041725 20.066975 15.895695 17.881922 17.77 17.060001L 29.48 11.934C 31.792633 10.920637 34.381462 10.725241 36.82 11.38L 44.514 12.944L 53.714001 12.944M 37.512001 20.557999L 31.08 19.732C 29.330788 19.633434 27.784254 20.858635 27.48 22.584L 27.48 22.584C 27.469334 22.637333 27.461334 22.691334 27.455999 22.746C 27.339394 23.657452 27.590132 24.577854 28.152918 25.304224C 28.715704 26.030594 29.544312 26.503265 30.456001 26.618L 35.468002 27.504C 37.633202 27.889011 39.863949 27.623131 41.877998 26.74L 48.678001 23L 53.726002 23M 28.872 26.212C 30.034025 30.538134 31.800066 34.678871 34.118 38.512001"></path></g></g></g><g id="g-root-yoyo_vahgtjpkkahb-stroke" data-item-order="1000000000" data-item-id="yoyo_vahgtjpkkahb" data-item-class="Icon Stroke Indexed ColorStrokeBlack" data-item-index="2" data-renderer-id="0" transform="translate(15, 75)"><g id="yoyo_vahgtjpkkahb-stroke" fill="none" stroke-linecap="round" stroke-linejoin="round" stroke-miterlimit="4" stroke="#666666" stroke-width="2"><g><path d="M 22.369999 52.827999C 20.797449 50.326149 20.674789 47.176575 22.048 44.559998M 16.656 56.400002C 13.493524 51.552162 13.493524 45.293839 16.656 40.445999M 29.403999 47C 29.404001 52.521744 33.880257 56.998001 39.402 56.998001C 44.923744 56.998001 49.400002 52.521744 49.400002 47C 49.400002 41.478256 44.923744 37.001999 39.402 37.001999C 33.880257 37.001999 29.404001 41.478256 29.404001 47M 39.400002 44C 41.056854 44 42.400002 45.343147 42.400002 47C 42.400002 48.656857 41.056854 50 39.400002 50C 37.743149 50 36.400002 48.656857 36.400002 47C 36.400002 45.343147 37.743149 44 39.400002 44ZM 29.233999 20.133999L 20.743999 23.852001C 18.868452 24.673225 16.682327 23.817942 15.862 21.942001L 15.862 21.942001C 15.041725 20.066975 15.895695 17.881922 17.77 17.060001L 29.48 11.934C 31.792633 10.920637 34.381462 10.725241 36.82 11.38L 44.514 12.944L 53.714001 12.944M 37.512001 20.557999L 31.08 19.732C 29.330788 19.633434 27.784254 20.858635 27.48 22.584L 27.48 22.584C 27.469334 22.637333 27.461334 22.691334 27.455999 22.746C 27.339394 23.657452 27.590132 24.577854 28.152918 25.304224C 28.715704 26.030594 29.544312 26.503265 30.456001 26.618L 35.468002 27.504C 37.633202 27.889011 39.863949 27.623131 41.877998 26.74L 48.678001 23L 53.726002 23M 28.872 26.212C 30.034025 30.538134 31.800066 34.678871 34.118 38.512001"></path></g></g></g><g id="g-root-tx_earlymot_74gvbpkiux3-stroke" data-item-order="1000000000" data-item-id="tx_earlymot_74gvbpkiux3" data-item-class="Label Stroke Indexed ColorStrokeBlack" data-item-index="2" data-renderer-id="0" transform="translate(75, 75)"></g><g id="g-root-tx_earlymot_74gvbpkiux3-stroke" data-item-order="1000000000" data-item-id="tx_earlymot_74gvbpkiux3" data-item-class="Label Stroke Indexed ColorStrokeBlack" data-item-index="2" data-renderer-id="0" transform="translate(75, 75)"></g><g id="g-root-mask_1464h2fpkk9om-stroke" data-item-order="1000000000" data-item-id="mask_1464h2fpkk9om" data-item-class="Icon Stroke Indexed ColorStrokeBlack" data-item-index="5" data-renderer-id="0" transform="translate(339, 75)"><g id="mask_1464h2fpkk9om-stroke" fill="none" stroke-linecap="round" stroke-linejoin="round" stroke-miterlimit="4" stroke="#666666" stroke-width="2"><g><path d="M 23.714287 37.428574C 23.714287 37.428574 25.428572 42.57143 34 42.57143C 42.57143 42.57143 44.285713 37.428574 44.285713 37.428574M 56.285713 34C 56.285713 46.308064 46.308064 56.285713 34 56.285713C 21.69194 56.285713 11.714287 46.308064 11.714287 34L 11.714286 11.714286L 56.285713 11.714286ZM 27.142857 27.142857C 27.142857 25.24931 25.607834 23.714287 23.714287 23.714287C 21.820738 23.714287 20.285715 25.24931 20.285715 27.142857M 47.714287 27.142857C 47.714287 25.24931 46.179264 23.714287 44.285713 23.714287C 42.392166 23.714287 40.857143 25.24931 40.857143 27.142857"></path></g></g></g><g id="g-root-mask_1464h2fpkk9om-stroke" data-item-order="1000000000" data-item-id="mask_1464h2fpkk9om" data-item-class="Icon Stroke Indexed ColorStrokeBlack" data-item-index="5" data-renderer-id="0" transform="translate(339, 75)"><g id="mask_1464h2fpkk9om-stroke" fill="none" stroke-linecap="round" stroke-linejoin="round" stroke-miterlimit="4" stroke="#666666" stroke-width="2"><g><path d="M 23.714287 37.428574C 23.714287 37.428574 25.428572 42.57143 34 42.57143C 42.57143 42.57143 44.285713 37.428574 44.285713 37.428574M 56.285713 34C 56.285713 46.308064 46.308064 56.285713 34 56.285713C 21.69194 56.285713 11.714287 46.308064 11.714287 34L 11.714286 11.714286L 56.285713 11.714286ZM 27.142857 27.142857C 27.142857 25.24931 25.607834 23.714287 23.714287 23.714287C 21.820738 23.714287 20.285715 25.24931 20.285715 27.142857M 47.714287 27.142857C 47.714287 25.24931 46.179264 23.714287 44.285713 23.714287C 42.392166 23.714287 40.857143 25.24931 40.857143 27.142857"></path></g></g></g><g id="g-root-tx_symptomm_1lws0h3pkiway-stroke" data-item-order="1000000000" data-item-id="tx_symptomm_1lws0h3pkiway" data-item-class="Label Stroke Indexed ColorStrokeBlack" data-item-index="5" data-renderer-id="0" transform="translate(399, 75)"></g><g id="g-root-tx_symptomm_1lws0h3pkiway-stroke" data-item-order="1000000000" data-item-id="tx_symptomm_1lws0h3pkiway" data-item-class="Label Stroke Indexed ColorStrokeBlack" data-item-index="5" data-renderer-id="0" transform="translate(399, 75)"></g><g id="g-root-eye_1unf813pklnnt-stroke" data-item-order="1000000000" data-item-id="eye_1unf813pklnnt" data-item-class="Icon Stroke Indexed ColorStrokeBlack" data-item-index="3" data-renderer-id="0" transform="translate(15, 147)"><g id="eye_1unf813pklnnt-stroke" fill="none" stroke-linecap="round" stroke-linejoin="round" stroke-miterlimit="4" stroke="#666666" stroke-width="2"><g><path d="M 14 16L 54 16C 54 16 56 16 56 18L 56 50C 56 50 56 52 54 52L 14 52C 14 52 12 52 12 50L 12 18C 12 18 12 16 14 16M 18 28L 18 24C 18 22.895432 18.895432 22 20 22L 24 22M 50 28L 50 24C 50 22.895432 49.104568 22 48 22L 44 22M 18 40L 18 44C 18 45.104568 18.895432 46 20 46L 24 46M 50 40L 50 44C 50 45.104568 49.104568 46 48 46L 44 46M 29 34C 29 36.761425 31.238577 39 34 39C 36.761425 39 39 36.761425 39 34C 39 31.238577 36.761425 29 34 29C 31.238577 29 29 31.238577 29 34M 45.650002 33.104C 44.355999 31.691999 39.629997 27 34 27C 28.370001 27 23.644001 31.691999 22.35 33.104C 21.878456 33.611351 21.878456 34.396648 22.35 34.903999C 23.644001 36.307999 28.370001 41 34 41C 39.629997 41 44.355999 36.307999 45.650002 34.896C 46.121548 34.388649 46.121548 33.603355 45.650002 33.096001Z"></path></g></g></g><g id="g-root-eye_1unf813pklnnt-stroke" data-item-order="1000000000" data-item-id="eye_1unf813pklnnt" data-item-class="Icon Stroke Indexed ColorStrokeBlack" data-item-index="3" data-renderer-id="0" transform="translate(15, 147)"><g id="eye_1unf813pklnnt-stroke" fill="none" stroke-linecap="round" stroke-linejoin="round" stroke-miterlimit="4" stroke="#666666" stroke-width="2"><g><path d="M 14 16L 54 16C 54 16 56 16 56 18L 56 50C 56 50 56 52 54 52L 14 52C 14 52 12 52 12 50L 12 18C 12 18 12 16 14 16M 18 28L 18 24C 18 22.895432 18.895432 22 20 22L 24 22M 50 28L 50 24C 50 22.895432 49.104568 22 48 22L 44 22M 18 40L 18 44C 18 45.104568 18.895432 46 20 46L 24 46M 50 40L 50 44C 50 45.104568 49.104568 46 48 46L 44 46M 29 34C 29 36.761425 31.238577 39 34 39C 36.761425 39 39 36.761425 39 34C 39 31.238577 36.761425 29 34 29C 31.238577 29 29 31.238577 29 34M 45.650002 33.104C 44.355999 31.691999 39.629997 27 34 27C 28.370001 27 23.644001 31.691999 22.35 33.104C 21.878456 33.611351 21.878456 34.396648 22.35 34.903999C 23.644001 36.307999 28.370001 41 34 41C 39.629997 41 44.355999 36.307999 45.650002 34.896C 46.121548 34.388649 46.121548 33.603355 45.650002 33.096001Z"></path></g></g></g><g id="g-root-nine_1lws0h3pkkah8-stroke" data-item-order="1000000000" data-item-id="nine_1lws0h3pkkah8" data-item-class="Icon Stroke Indexed Indexed_1 ColorStrokeBlack" data-item-index="1" data-renderer-id="0" transform="translate(15, 3)"><g id="nine_1lws0h3pkkah8-stroke" fill="none" stroke-linecap="round" stroke-linejoin="round" stroke-miterlimit="4" stroke="#666666" stroke-width="2"><g><path d="M 11.714286 34C 11.714287 46.308064 21.69194 56.285713 34 56.285713C 46.308064 56.285713 56.285713 46.308064 56.285713 34C 56.285713 21.69194 46.308064 11.714287 34 11.714286L 34 34ZM 21.862858 21.862858L 18.228571 18.228571"></path></g></g></g><g id="g-root-tx_higherdi_4mxyzrpkiu4u-stroke" data-item-order="1000000000" data-item-id="tx_higherdi_4mxyzrpkiu4u" data-item-class="Label Stroke Indexed ColorStrokeBlack" data-item-index="3" data-renderer-id="0" transform="translate(75, 147)"></g><g id="g-root-ribb_18lxz6vpkk8wd-stroke" data-item-order="1000000000" data-item-id="ribb_18lxz6vpkk8wd" data-item-class="Icon Stroke Indexed ColorStrokeBlack" data-item-index="6" data-renderer-id="0" transform="translate(339, 147)"><g id="ribb_18lxz6vpkk8wd-stroke" fill="none" stroke-linecap="round" stroke-linejoin="round" stroke-miterlimit="4" stroke="#666666" stroke-width="2"><g><path d="M 39.200001 21.952C 39.200001 23.688 34 30.625999 34 30.625999C 34 30.625999 28.799999 23.688 28.799999 21.952C 29.05769 19.272972 31.308609 17.228176 34 17.228176C 36.691391 17.228176 38.942307 19.272972 39.199997 21.952ZM 30.944 24.4C 32.773491 23.098547 35.226509 23.098547 37.056 24.4M 39.200001 21.084C 40.476536 23.478006 41.076691 26.17457 40.936001 28.884001C 40.936001 38.426003 26.188 54.040001 26.188 54.040001L 22.723999 43.638C 26.748632 39.538483 30.514559 35.192772 34 30.625999M 34.043999 44.506001C 36.430237 47.843449 39.020512 51.030193 41.799999 54.048L 45.268002 43.638C 45.268002 43.638 42.389999 40.757999 38.896 36.700001M 28.884001 21.084C 27.505323 23.441364 26.869646 26.159723 27.059999 28.884001C 27.311081 31.50102 28.113335 34.03524 29.414 36.32M 24.924 19.958C 21.6 16.142 17.6 13 14 14.218C 14 14.218 9.134 16.218 12.308001 21.464001C 12.308001 21.464001 14.908 25.218 15.534 26.17C 15.885744 26.957775 15.904495 27.854204 15.586 28.656C 15.586 28.656 14.898 32.73 23.15 34.634003C 22.810001 34.554001 21.902 35.054001 21.560001 35.183998C 19.713091 35.78392 18.034121 36.811859 16.66 38.183998C 15.30083 39.894875 15.219643 42.293129 16.459999 44.092003C 17.286777 45.436455 18.474548 46.521664 19.888 47.223999M 43.076 19.958C 46.400002 16.142 50.400002 13 54 14.218C 54 14.218 58.866001 16.218 55.692001 21.464001C 55.692001 21.464001 53.091999 25.218 52.466 26.17C 52.114258 26.957775 52.095505 27.854204 52.414001 28.656C 52.414001 28.656 53.102001 32.73 44.849998 34.634003C 45.189999 34.554001 46.098 35.054001 46.450001 35.183998C 48.296909 35.78392 49.97588 36.811859 51.349998 38.183998C 52.709171 39.894875 52.790359 42.293129 51.550003 44.092003C 50.723221 45.436455 49.53545 46.521664 48.121998 47.223999M 17.806 20.514L 20.4 22.296M 19.98 27.162001L 22.723999 28.705999M 50.194 20.514L 47.599998 22.296M 48.02 27.162001L 45.276001 28.705999"></path></g></g></g><g id="g-root-ribb_18lxz6vpkk8wd-stroke" data-item-order="1000000000" data-item-id="ribb_18lxz6vpkk8wd" data-item-class="Icon Stroke Indexed ColorStrokeBlack" data-item-index="6" data-renderer-id="0" transform="translate(339, 147)"><g id="ribb_18lxz6vpkk8wd-stroke" fill="none" stroke-linecap="round" stroke-linejoin="round" stroke-miterlimit="4" stroke="#666666" stroke-width="2"><g><path d="M 39.200001 21.952C 39.200001 23.688 34 30.625999 34 30.625999C 34 30.625999 28.799999 23.688 28.799999 21.952C 29.05769 19.272972 31.308609 17.228176 34 17.228176C 36.691391 17.228176 38.942307 19.272972 39.199997 21.952ZM 30.944 24.4C 32.773491 23.098547 35.226509 23.098547 37.056 24.4M 39.200001 21.084C 40.476536 23.478006 41.076691 26.17457 40.936001 28.884001C 40.936001 38.426003 26.188 54.040001 26.188 54.040001L 22.723999 43.638C 26.748632 39.538483 30.514559 35.192772 34 30.625999M 34.043999 44.506001C 36.430237 47.843449 39.020512 51.030193 41.799999 54.048L 45.268002 43.638C 45.268002 43.638 42.389999 40.757999 38.896 36.700001M 28.884001 21.084C 27.505323 23.441364 26.869646 26.159723 27.059999 28.884001C 27.311081 31.50102 28.113335 34.03524 29.414 36.32M 24.924 19.958C 21.6 16.142 17.6 13 14 14.218C 14 14.218 9.134 16.218 12.308001 21.464001C 12.308001 21.464001 14.908 25.218 15.534 26.17C 15.885744 26.957775 15.904495 27.854204 15.586 28.656C 15.586 28.656 14.898 32.73 23.15 34.634003C 22.810001 34.554001 21.902 35.054001 21.560001 35.183998C 19.713091 35.78392 18.034121 36.811859 16.66 38.183998C 15.30083 39.894875 15.219643 42.293129 16.459999 44.092003C 17.286777 45.436455 18.474548 46.521664 19.888 47.223999M 43.076 19.958C 46.400002 16.142 50.400002 13 54 14.218C 54 14.218 58.866001 16.218 55.692001 21.464001C 55.692001 21.464001 53.091999 25.218 52.466 26.17C 52.114258 26.957775 52.095505 27.854204 52.414001 28.656C 52.414001 28.656 53.102001 32.73 44.849998 34.634003C 45.189999 34.554001 46.098 35.054001 46.450001 35.183998C 48.296909 35.78392 49.97588 36.811859 51.349998 38.183998C 52.709171 39.894875 52.790359 42.293129 51.550003 44.092003C 50.723221 45.436455 49.53545 46.521664 48.121998 47.223999M 17.806 20.514L 20.4 22.296M 19.98 27.162001L 22.723999 28.705999M 50.194 20.514L 47.599998 22.296M 48.02 27.162001L 45.276001 28.705999"></path></g></g></g><g id="g-root-tx_potentia_1lws0h3pkiwax-stroke" data-item-order="1000000000" data-item-id="tx_potentia_1lws0h3pkiwax" data-item-class="Label Stroke Indexed ColorStrokeBlack" data-item-index="6" data-renderer-id="0" transform="translate(399, 147)"></g><g id="g-root-tx_potentia_1lws0h3pkiwax-stroke" data-item-order="1000000000" data-item-id="tx_potentia_1lws0h3pkiwax" data-item-class="Label Stroke Indexed ColorStrokeBlack" data-item-index="6" data-renderer-id="0" transform="translate(399, 147)"></g><g id="g-root-tx_delayedd_1hhkzfrpkitxf-stroke" data-item-order="1000000000" data-item-id="tx_delayedd_1hhkzfrpkitxf" data-item-class="Label Stroke Indexed ColorStrokeBlack" data-item-index="4" data-renderer-id="0" transform="translate(399, 3)"></g><g id="g-root-tx_delayedd_1hhkzfrpkitxf-stroke" data-item-order="1000000000" data-item-id="tx_delayedd_1hhkzfrpkitxf" data-item-class="Label Stroke Indexed ColorStrokeBlack" data-item-index="4" data-renderer-id="0" transform="translate(399, 3)"></g><g id="g-root-tx_genderdi_18lxz6vpkiuq6-stroke" data-item-order="1000000000" data-item-id="tx_genderdi_18lxz6vpkiuq6" data-item-class="Label Stroke Title ColorStrokeBlack" data-item-index="none" data-renderer-id="0" transform="translate(99, 387)"></g><g id="g-root-woma_mfgxnrpkk8w0-stroke" data-item-order="1000000000" data-item-id="woma_mfgxnrpkk8w0" data-item-class="Icon Stroke Indexed ColorStrokeBlack" data-item-index="4" data-renderer-id="0" transform="translate(339, 3)"><g id="woma_mfgxnrpkk8w0-stroke" fill="none" stroke-linecap="round" stroke-linejoin="round" stroke-miterlimit="4" stroke="#666666" stroke-width="2"><g><path d="M 32 49L 23.42 49C 22.460777 49.00024 21.560083 48.538731 21 47.760002L 14.58 38.760002C 13.856186 37.901268 13.672636 36.710171 14.104343 35.67337C 14.536052 34.636566 15.510706 33.927727 16.630081 33.836468C 17.749458 33.745209 18.826056 34.286816 19.42 35.240002L 24.959999 43L 32 43M 23.42 49L 13 49C 12.447716 49 12 49.447716 12 50L 12 57M 56 53L 56 57M 12 19C 12 23.418278 15.581722 27 20 27C 24.418278 27 28 23.418278 28 19C 28 14.581722 24.418278 11 20 11C 15.581722 11 12 14.581722 12 19M 23.540001 19L 20 19L 20 15.46M 41.040001 16C 41.040001 18.761425 43.278576 21 46.040001 21C 48.801426 21 51.040001 18.761425 51.040001 16C 51.040001 13.238577 48.801426 11 46.040001 11C 43.278576 11 41.040001 13.238577 41.040001 16M 52.099998 29.879999C 51.445045 27.038994 48.915527 25.026272 46.000004 25.026272C 43.084476 25.026272 40.554955 27.038994 39.900002 29.880001L 36 47L 42 47L 42 55C 42 56.104568 42.895432 57 44 57L 48 57C 49.104568 57 50 56.104568 50 55L 50 47L 56 47Z"></path></g></g></g><g id="g-root-tx_diagnost_1usf0pzpkivi8-stroke" data-item-order="1000000000" data-item-id="tx_diagnost_1usf0pzpkivi8" data-item-class="Label Stroke Indexed Indexed_1 ColorStrokeBlack" data-item-index="1" data-renderer-id="0" transform="translate(75, 15)"></g><g id="g-root-tx_diagnost_1usf0pzpkivi8-stroke" data-item-order="1000000000" data-item-id="tx_diagnost_1usf0pzpkivi8" data-item-class="Label Stroke Indexed Indexed_1 ColorStrokeBlack" data-item-index="1" data-renderer-id="0" transform="translate(75, 15)"></g><g id="g-root-nine_1lws0h3pkkah8-stroke" data-item-order="1000000000" data-item-id="nine_1lws0h3pkkah8" data-item-class="Icon Stroke Indexed Indexed_1 ColorStrokeBlack" data-item-index="1" data-renderer-id="0" transform="translate(15, 3)"><g id="nine_1lws0h3pkkah8-stroke" fill="none" stroke-linecap="round" stroke-linejoin="round" stroke-miterlimit="4" stroke="#666666" stroke-width="2"><g><path d="M 11.714286 34C 11.714287 46.308064 21.69194 56.285713 34 56.285713C 46.308064 56.285713 56.285713 46.308064 56.285713 34C 56.285713 21.69194 46.308064 11.714287 34 11.714286L 34 34ZM 21.862858 21.862858L 18.228571 18.228571"></path></g></g></g><g id="g-root-tx_boys_1hhkzfrpkitxg-stroke" data-item-order="1000000000" data-item-id="tx_boys_1hhkzfrpkitxg" data-item-class="Label Stroke Indexed ColorStrokeBlack" data-item-index="none" data-renderer-id="0" transform="translate(93, 315)"></g><g id="g-root-tx_boys_1hhkzfrpkitxg-stroke" data-item-order="1000000000" data-item-id="tx_boys_1hhkzfrpkitxg" data-item-class="Label Stroke Indexed ColorStrokeBlack" data-item-index="none" data-renderer-id="0" transform="translate(93, 315)"></g><g id="g-root-tx_girls_18lxz6vpkiuq5-stroke" data-item-order="1000000000" data-item-id="tx_girls_18lxz6vpkiuq5" data-item-class="Label Stroke Indexed ColorStrokeBlack" data-item-index="none" data-renderer-id="0" transform="translate(417, 315)"></g><g id="g-root-tx_girls_18lxz6vpkiuq5-stroke" data-item-order="1000000000" data-item-id="tx_girls_18lxz6vpkiuq5" data-item-class="Label Stroke Indexed ColorStrokeBlack" data-item-index="none" data-renderer-id="0" transform="translate(417, 315)"></g><g id="g-root-tx_genderdi_18lxz6vpkiuq6-stroke" data-item-order="1000000000" data-item-id="tx_genderdi_18lxz6vpkiuq6" data-item-class="Label Stroke Title ColorStrokeBlack" data-item-index="none" data-renderer-id="0" transform="translate(99, 387)"></g><g id="g-root-woma_mfgxnrpkk8w0-stroke" data-item-order="1000000000" data-item-id="woma_mfgxnrpkk8w0" data-item-class="Icon Stroke Indexed ColorStrokeBlack" data-item-index="4" data-renderer-id="0" transform="translate(339, 3)"><g id="woma_mfgxnrpkk8w0-stroke" fill="none" stroke-linecap="round" stroke-linejoin="round" stroke-miterlimit="4" stroke="#666666" stroke-width="2"><g><path d="M 32 49L 23.42 49C 22.460777 49.00024 21.560083 48.538731 21 47.760002L 14.58 38.760002C 13.856186 37.901268 13.672636 36.710171 14.104343 35.67337C 14.536052 34.636566 15.510706 33.927727 16.630081 33.836468C 17.749458 33.745209 18.826056 34.286816 19.42 35.240002L 24.959999 43L 32 43M 23.42 49L 13 49C 12.447716 49 12 49.447716 12 50L 12 57M 56 53L 56 57M 12 19C 12 23.418278 15.581722 27 20 27C 24.418278 27 28 23.418278 28 19C 28 14.581722 24.418278 11 20 11C 15.581722 11 12 14.581722 12 19M 23.540001 19L 20 19L 20 15.46M 41.040001 16C 41.040001 18.761425 43.278576 21 46.040001 21C 48.801426 21 51.040001 18.761425 51.040001 16C 51.040001 13.238577 48.801426 11 46.040001 11C 43.278576 11 41.040001 13.238577 41.040001 16M 52.099998 29.879999C 51.445045 27.038994 48.915527 25.026272 46.000004 25.026272C 43.084476 25.026272 40.554955 27.038994 39.900002 29.880001L 36 47L 42 47L 42 55C 42 56.104568 42.895432 57 44 57L 48 57C 49.104568 57 50 56.104568 50 55L 50 47L 56 47Z"></path></g></g></g><g id="g-root-tx_higherdi_4mxyzrpkiu4u-stroke" data-item-order="1000000000" data-item-id="tx_higherdi_4mxyzrpkiu4u" data-item-class="Label Stroke Indexed ColorStrokeBlack" data-item-index="3" data-renderer-id="0" transform="translate(75, 147)"></g></g></g></svg> 