<?xml version="1.0" encoding="UTF-8" standalone="yes"?> <svg xmlns="http://www.w3.org/2000/svg" xmlns:xlink="http://www.w3.org/1999/xlink" width="588" height="396" viewBox="0 0 588 396" style="fill:none;stroke:none;fill-rule:evenodd;clip-rule:evenodd;stroke-linecap:round;stroke-linejoin:round;stroke-miterlimit:1.5;" version="1.1"><style id="fontImports">@import url("https://fonts.googleapis.com/css2?family=Shantell+Sans:wght@300..800&amp;display=block");</style><g id="items" style="isolation: isolate"><g id="blend" style="mix-blend-mode:normal"><g id="g-root-3.line_sy_v4vmwnmidix2-fill" data-item-order="999969701" data-item-id="3.line_sy_v4vmwnmidix2" data-item-class="Part Indexed Stroke ColorStrokeBlack" data-item-index="3" data-renderer-id="0" transform="translate(220.469482421875, 140)"></g><g id="g-root-3.line_sy_v4vmwnmidix2-fill" data-item-order="999969701" data-item-id="3.line_sy_v4vmwnmidix2" data-item-class="Part Indexed Stroke ColorStrokeBlack" data-item-index="3" data-renderer-id="0" transform="translate(220.469482421875, 140)"></g><g id="g-root-2.line_sy_v4vmwnmidix1-fill" data-item-order="999969703" data-item-id="2.line_sy_v4vmwnmidix1" data-item-class="Part Indexed Stroke ColorStrokeBlack" data-item-index="2" data-renderer-id="0" transform="translate(314.0001220703125, 266)"></g><g id="g-root-2.line_sy_v4vmwnmidix1-fill" data-item-order="999969703" data-item-id="2.line_sy_v4vmwnmidix1" data-item-class="Part Indexed Stroke ColorStrokeBlack" data-item-index="2" data-renderer-id="0" transform="translate(314.0001220703125, 266)"></g><g id="g-root-1.line_sy_v4vmwnmidix0-fill" data-item-order="999969705" data-item-id="1.line_sy_v4vmwnmidix0" data-item-class="Part Indexed Indexed_1 Stroke ColorStrokeBlack" data-item-index="1" data-renderer-id="0" transform="translate(376.3538818359375, 140)"></g><g id="g-root-1.line_sy_v4vmwnmidix0-fill" data-item-order="999969705" data-item-id="1.line_sy_v4vmwnmidix0" data-item-class="Part Indexed Indexed_1 Stroke ColorStrokeBlack" data-item-index="1" data-renderer-id="0" transform="translate(376.3538818359375, 140)"></g><g id="g-root-tx_autismdi_v4vmwnmidix3-fill" data-item-order="1000000000" data-item-id="tx_autismdi_v4vmwnmidix3" data-item-class="Label Stroke Title ColorStrokeBlack" data-item-index="none" data-renderer-id="0" transform="translate(98, 2)"><g id="tx_autismdi_v4vmwnmidix3-fill" stroke="none" fill="#484848"><g><text style="font: bold 25px &quot;Shantell Sans&quot;, cursive; white-space: pre;" font-weight="bold" font-size="25" font-family="'Shantell Sans', cursive"><tspan x="16.88" y="44.5">Autism Diagnosis and Screening</tspan></text></g></g></g><g id="g-root-tx_autismdi_v4vmwnmidix3-fill" data-item-order="1000000000" data-item-id="tx_autismdi_v4vmwnmidix3" data-item-class="Label Stroke Title ColorStrokeBlack" data-item-index="none" data-renderer-id="0" transform="translate(98, 2)"><g id="tx_autismdi_v4vmwnmidix3-fill" stroke="none" fill="#484848"><g><text style="font: bold 25px &quot;Shantell Sans&quot;, cursive; white-space: pre;" font-weight="bold" font-size="25" font-family="'Shantell Sans', cursive"><tspan x="16.88" y="44.5">Autism Diagnosis and Screening</tspan></text></g></g></g><g id="g-root-tx_screenin_hu1lmfmidhc8-fill" data-item-order="1000000000" data-item-id="tx_screenin_hu1lmfmidhc8" data-item-class="Label Stroke Indexed ColorStrokeBlack" data-item-index="3" data-renderer-id="0" transform="translate(2, 98)"><g id="tx_screenin_hu1lmfmidhc8-fill" stroke="none" fill="#484848"><g><text style="font: 20px &quot;Shantell Sans&quot;, cursive; white-space: pre;" font-weight="20px" font-size="&quot;Shantell" font-family="Sans', cursive"><tspan x="107.2" y="35.5">Screening </tspan><tspan x="23.46" y="59.5">Recommendations</tspan></text></g></g></g><g id="g-root-tx_screenin_hu1lmfmidhc8-fill" data-item-order="1000000000" data-item-id="tx_screenin_hu1lmfmidhc8" data-item-class="Label Stroke Indexed ColorStrokeBlack" data-item-index="3" data-renderer-id="0" transform="translate(2, 98)"><g id="tx_screenin_hu1lmfmidhc8-fill" stroke="none" fill="#484848"><g><text style="font: 20px &quot;Shantell Sans&quot;, cursive; white-space: pre;" font-weight="20px" font-size="&quot;Shantell" font-family="Sans', cursive"><tspan x="107.2" y="35.5">Screening </tspan><tspan x="23.46" y="59.5">Recommendations</tspan></text></g></g></g><g id="g-root-tx_earlyint_de83hzmidi4i-fill" data-item-order="1000000000" data-item-id="tx_earlyint_de83hzmidi4i" data-item-class="Label Stroke Indexed Indexed_1 ColorStrokeBlack" data-item-index="1" data-renderer-id="0" transform="translate(434, 98)"><g id="tx_earlyint_de83hzmidi4i-fill" stroke="none" fill="#484848"><g><text style="font: 20px &quot;Shantell Sans&quot;, cursive; white-space: pre;" font-weight="20px" font-size="&quot;Shantell" font-family="Sans', cursive"><tspan x="12" y="35.5">Early </tspan><tspan x="12" y="59.5">Intervention</tspan></text></g></g></g><g id="g-root-tx_earlyint_de83hzmidi4i-fill" data-item-order="1000000000" data-item-id="tx_earlyint_de83hzmidi4i" data-item-class="Label Stroke Indexed Indexed_1 ColorStrokeBlack" data-item-index="1" data-renderer-id="0" transform="translate(434, 98)"><g id="tx_earlyint_de83hzmidi4i-fill" stroke="none" fill="#484848"><g><text style="font: 20px &quot;Shantell Sans&quot;, cursive; white-space: pre;" font-weight="20px" font-size="&quot;Shantell" font-family="Sans', cursive"><tspan x="12" y="35.5">Early </tspan><tspan x="12" y="59.5">Intervention</tspan></text></g></g></g><g id="g-root-1_1ut1xo7milz40-fill" data-item-order="1000000000" data-item-id="1_1ut1xo7milz40" data-item-class="Icon Stroke ColorStrokeBlack" data-item-index="none" data-renderer-id="0" transform="translate(278, 157.99609375)"></g><g id="g-root-1_1ut1xo7milz40-fill" data-item-order="1000000000" data-item-id="1_1ut1xo7milz40" data-item-class="Icon Stroke ColorStrokeBlack" data-item-index="none" data-renderer-id="0" transform="translate(278, 157.99609375)"></g><g id="g-root-tx_improved_de83hzmidi4h-fill" data-item-order="1000000000" data-item-id="tx_improved_de83hzmidi4h" data-item-class="Label Stroke Indexed ColorStrokeBlack" data-item-index="2" data-renderer-id="0" transform="translate(260, 326)"><g id="tx_improved_de83hzmidi4h-fill" stroke="none" fill="#484848"><g><text style="font: 20px &quot;Shantell Sans&quot;, cursive; white-space: pre;" font-weight="20px" font-size="&quot;Shantell" font-family="Sans', cursive"><tspan x="14.09" y="35.5">Improved </tspan><tspan x="13.81" y="59.5">Outcomes</tspan></text></g></g></g><g id="g-root-tx_improved_de83hzmidi4h-fill" data-item-order="1000000000" data-item-id="tx_improved_de83hzmidi4h" data-item-class="Label Stroke Indexed ColorStrokeBlack" data-item-index="2" data-renderer-id="0" transform="translate(260, 326)"><g id="tx_improved_de83hzmidi4h-fill" stroke="none" fill="#484848"><g><text style="font: 20px &quot;Shantell Sans&quot;, cursive; white-space: pre;" font-weight="20px" font-size="&quot;Shantell" font-family="Sans', cursive"><tspan x="14.09" y="35.5">Improved </tspan><tspan x="13.81" y="59.5">Outcomes</tspan></text></g></g></g><g id="g-root-3.line_sy_v4vmwnmidix2-stroke" data-item-order="999969701" data-item-id="3.line_sy_v4vmwnmidix2" data-item-class="Part Indexed Stroke ColorStrokeBlack" data-item-index="3" data-renderer-id="0" transform="translate(220.469482421875, 140)"><g id="3.line_sy_v4vmwnmidix2-stroke" fill="none" stroke-linecap="round" stroke-linejoin="round" stroke-miterlimit="4" stroke="#484848" stroke-width="2"><g><path d="M 41.230518 28C 31.530518 22 22.130518 15.5 11.730518 11"></path><path d="M 41.180518 28L 11.730518 11"></path><path d="M 20.130518 8.4C 17.130518 9.1 13.930518 9.1 11.330518 10.7C 12.730518 13.4 12.430518 16.8 13.630518 19.6" stroke-dasharray="none"></path><path d="M 20.130518 8.4L 11.330518 10.7L 13.630518 19.6" stroke-dasharray="none"></path></g></g></g><g id="g-root-3.line_sy_v4vmwnmidix2-stroke" data-item-order="999969701" data-item-id="3.line_sy_v4vmwnmidix2" data-item-class="Part Indexed Stroke ColorStrokeBlack" data-item-index="3" data-renderer-id="0" transform="translate(220.469482421875, 140)"><g id="3.line_sy_v4vmwnmidix2-stroke" fill="none" stroke-linecap="round" stroke-linejoin="round" stroke-miterlimit="4" stroke="#484848" stroke-width="2"><g><path d="M 41.230518 28C 31.530518 22 22.130518 15.5 11.730518 11"></path><path d="M 41.180518 28L 11.730518 11"></path><path d="M 20.130518 8.4C 17.130518 9.1 13.930518 9.1 11.330518 10.7C 12.730518 13.4 12.430518 16.8 13.630518 19.6" stroke-dasharray="none"></path><path d="M 20.130518 8.4L 11.330518 10.7L 13.630518 19.6" stroke-dasharray="none"></path></g></g></g><g id="g-root-2.line_sy_v4vmwnmidix1-stroke" data-item-order="999969703" data-item-id="2.line_sy_v4vmwnmidix1" data-item-class="Part Indexed Stroke ColorStrokeBlack" data-item-index="2" data-renderer-id="0" transform="translate(314.0001220703125, 266)"><g id="2.line_sy_v4vmwnmidix1-stroke" fill="none" stroke-linecap="round" stroke-linejoin="round" stroke-miterlimit="4" stroke="#484848" stroke-width="2"><g><path d="M 9.999878 10C 8.799878 21.3 9.799878 32.7 9.999878 44"></path><path d="M 9.999878 10L 9.999878 44"></path><path d="M 3.499878 38C 4.999878 40.7 7.699878 42.5 9.999878 44.5C 11.999878 42.2 13.899878 39.6 16.499878 38" stroke-dasharray="none"></path><path d="M 3.499878 38L 9.999878 44.5L 16.499878 38" stroke-dasharray="none"></path></g></g></g><g id="g-root-2.line_sy_v4vmwnmidix1-stroke" data-item-order="999969703" data-item-id="2.line_sy_v4vmwnmidix1" data-item-class="Part Indexed Stroke ColorStrokeBlack" data-item-index="2" data-renderer-id="0" transform="translate(314.0001220703125, 266)"><g id="2.line_sy_v4vmwnmidix1-stroke" fill="none" stroke-linecap="round" stroke-linejoin="round" stroke-miterlimit="4" stroke="#484848" stroke-width="2"><g><path d="M 9.999878 10C 8.799878 21.3 9.799878 32.7 9.999878 44"></path><path d="M 9.999878 10L 9.999878 44"></path><path d="M 3.499878 38C 4.999878 40.7 7.699878 42.5 9.999878 44.5C 11.999878 42.2 13.899878 39.6 16.499878 38" stroke-dasharray="none"></path><path d="M 3.499878 38L 9.999878 44.5L 16.499878 38" stroke-dasharray="none"></path></g></g></g><g id="g-root-1.line_sy_v4vmwnmidix0-stroke" data-item-order="999969705" data-item-id="1.line_sy_v4vmwnmidix0" data-item-class="Part Indexed Indexed_1 Stroke ColorStrokeBlack" data-item-index="1" data-renderer-id="0" transform="translate(376.3538818359375, 140)"><g id="1.line_sy_v4vmwnmidix0-stroke" fill="none" stroke-linecap="round" stroke-linejoin="round" stroke-miterlimit="4" stroke="#484848" stroke-width="2"><g><path d="M 10.046118 28C 20.446118 23.6 29.246118 16 39.446118 11"></path><path d="M 9.996118 28L 39.446118 11"></path><path d="M 37.546118 19.6C 39.246118 17 38.746118 13.6 39.846118 10.7C 37.146118 9.2 33.946118 9.4 31.046118 8.4" stroke-dasharray="none"></path><path d="M 37.546118 19.6L 39.846118 10.7L 31.046118 8.4" stroke-dasharray="none"></path></g></g></g><g id="g-root-1.line_sy_v4vmwnmidix0-stroke" data-item-order="999969705" data-item-id="1.line_sy_v4vmwnmidix0" data-item-class="Part Indexed Indexed_1 Stroke ColorStrokeBlack" data-item-index="1" data-renderer-id="0" transform="translate(376.3538818359375, 140)"><g id="1.line_sy_v4vmwnmidix0-stroke" fill="none" stroke-linecap="round" stroke-linejoin="round" stroke-miterlimit="4" stroke="#484848" stroke-width="2"><g><path d="M 10.046118 28C 20.446118 23.6 29.246118 16 39.446118 11"></path><path d="M 9.996118 28L 39.446118 11"></path><path d="M 37.546118 19.6C 39.246118 17 38.746118 13.6 39.846118 10.7C 37.146118 9.2 33.946118 9.4 31.046118 8.4" stroke-dasharray="none"></path><path d="M 37.546118 19.6L 39.846118 10.7L 31.046118 8.4" stroke-dasharray="none"></path></g></g></g><g id="g-root-tx_autismdi_v4vmwnmidix3-stroke" data-item-order="1000000000" data-item-id="tx_autismdi_v4vmwnmidix3" data-item-class="Label Stroke Title ColorStrokeBlack" data-item-index="none" data-renderer-id="0" transform="translate(98, 2)"></g><g id="g-root-tx_autismdi_v4vmwnmidix3-stroke" data-item-order="1000000000" data-item-id="tx_autismdi_v4vmwnmidix3" data-item-class="Label Stroke Title ColorStrokeBlack" data-item-index="none" data-renderer-id="0" transform="translate(98, 2)"></g><g id="g-root-tx_screenin_hu1lmfmidhc8-stroke" data-item-order="1000000000" data-item-id="tx_screenin_hu1lmfmidhc8" data-item-class="Label Stroke Indexed ColorStrokeBlack" data-item-index="3" data-renderer-id="0" transform="translate(2, 98)"></g><g id="g-root-tx_screenin_hu1lmfmidhc8-stroke" data-item-order="1000000000" data-item-id="tx_screenin_hu1lmfmidhc8" data-item-class="Label Stroke Indexed ColorStrokeBlack" data-item-index="3" data-renderer-id="0" transform="translate(2, 98)"></g><g id="g-root-tx_earlyint_de83hzmidi4i-stroke" data-item-order="1000000000" data-item-id="tx_earlyint_de83hzmidi4i" data-item-class="Label Stroke Indexed Indexed_1 ColorStrokeBlack" data-item-index="1" data-renderer-id="0" transform="translate(434, 98)"></g><g id="g-root-tx_earlyint_de83hzmidi4i-stroke" data-item-order="1000000000" data-item-id="tx_earlyint_de83hzmidi4i" data-item-class="Label Stroke Indexed Indexed_1 ColorStrokeBlack" data-item-index="1" data-renderer-id="0" transform="translate(434, 98)"></g><g id="g-root-1_1ut1xo7milz40-stroke" data-item-order="1000000000" data-item-id="1_1ut1xo7milz40" data-item-class="Icon Stroke ColorStrokeBlack" data-item-index="none" data-renderer-id="0" transform="translate(278, 157.99609375)"><g id="1_1ut1xo7milz40-stroke" fill="none" stroke-linecap="round" stroke-linejoin="round" stroke-miterlimit="4" stroke="#484848" stroke-width="2"><g><path d="M 50.5 25C 48.699997 30.400002 50.199997 36.099998 50.5 41.5C 55.599998 41.5 60.699997 40.900002 65.5 41.5M 25 49C 21.700001 34.900002 27.400002 21.1 40.300003 14.2C 52.900002 7 71.5 12.1 76.600006 25.599998C 82 39.400002 80.800003 55 68.800003 63.100002M 11.5 80.5C 10.3 70.600006 13.6 60.399998 11.5 50.5M 11.5 56.5C 18.1 59.199997 25.900002 54.699997 32.5 56.5C 37.300003 57.699997 41.5 60.399998 41.5 65.5C 47.199997 67.300003 53.800003 63.399998 59.5 65.5C 64 67.300003 67.300003 69.699997 68.5 74.5C 49.599998 76.899994 30.099998 70.899994 11.5 74.5C 13.3 68.800003 10.3 62.5 11.5 56.5M 41.5 65.5C 38.5 66.399994 35.5 65.800003 32.5 65.5"></path><path d="M 50.503002 25.003L 50.503002 41.503002L 65.502998 41.503002M 25 49.105C 20.332495 35.237946 26.923958 20.08922 40.252007 14.05233C 53.580051 8.01544 69.314285 13.051819 76.659485 25.706022C 84.004692 38.360226 80.574348 54.520794 68.722 63.100002M 11.5 80.502998L 11.5 50.503002M 11.5 56.5L 32.5 56.5C 37.470566 56.5 41.5 60.529434 41.5 65.5L 59.5 65.5C 64.470566 65.5 68.5 69.529434 68.5 74.5L 11.5 74.5ZM 41.5 65.502998L 32.5 65.502998"></path></g></g></g><g id="g-root-1_1ut1xo7milz40-stroke" data-item-order="1000000000" data-item-id="1_1ut1xo7milz40" data-item-class="Icon Stroke ColorStrokeBlack" data-item-index="none" data-renderer-id="0" transform="translate(278, 157.99609375)"><g id="1_1ut1xo7milz40-stroke" fill="none" stroke-linecap="round" stroke-linejoin="round" stroke-miterlimit="4" stroke="#484848" stroke-width="2"><g><path d="M 50.5 25C 48.699997 30.400002 50.199997 36.099998 50.5 41.5C 55.599998 41.5 60.699997 40.900002 65.5 41.5M 25 49C 21.700001 34.900002 27.400002 21.1 40.300003 14.2C 52.900002 7 71.5 12.1 76.600006 25.599998C 82 39.400002 80.800003 55 68.800003 63.100002M 11.5 80.5C 10.3 70.600006 13.6 60.399998 11.5 50.5M 11.5 56.5C 18.1 59.199997 25.900002 54.699997 32.5 56.5C 37.300003 57.699997 41.5 60.399998 41.5 65.5C 47.199997 67.300003 53.800003 63.399998 59.5 65.5C 64 67.300003 67.300003 69.699997 68.5 74.5C 49.599998 76.899994 30.099998 70.899994 11.5 74.5C 13.3 68.800003 10.3 62.5 11.5 56.5M 41.5 65.5C 38.5 66.399994 35.5 65.800003 32.5 65.5"></path><path d="M 50.503002 25.003L 50.503002 41.503002L 65.502998 41.503002M 25 49.105C 20.332495 35.237946 26.923958 20.08922 40.252007 14.05233C 53.580051 8.01544 69.314285 13.051819 76.659485 25.706022C 84.004692 38.360226 80.574348 54.520794 68.722 63.100002M 11.5 80.502998L 11.5 50.503002M 11.5 56.5L 32.5 56.5C 37.470566 56.5 41.5 60.529434 41.5 65.5L 59.5 65.5C 64.470566 65.5 68.5 69.529434 68.5 74.5L 11.5 74.5ZM 41.5 65.502998L 32.5 65.502998"></path></g></g></g><g id="g-root-tx_improved_de83hzmidi4h-stroke" data-item-order="1000000000" data-item-id="tx_improved_de83hzmidi4h" data-item-class="Label Stroke Indexed ColorStrokeBlack" data-item-index="2" data-renderer-id="0" transform="translate(260, 326)"></g><g id="g-root-tx_improved_de83hzmidi4h-stroke" data-item-order="1000000000" data-item-id="tx_improved_de83hzmidi4h" data-item-class="Label Stroke Indexed ColorStrokeBlack" data-item-index="2" data-renderer-id="0" transform="translate(260, 326)"></g></g></g></svg> 